<svg id="svg2" xmlns="http://www.w3.org/2000/svg" viewBox="465 139.6 1771.6 316.6"><style>.st0{fill:#333436}</style><g id="g10" transform="matrix(1.25 0 0 -1.25 0 316.65)"><g id="g12" transform="scale(.1)"><path id="path14" class="st0" d="M15719.7-306c183.8 0 333.4 154.9 333.4 346.6 0 194.3-149.6 349.2-333.4 349.2-183.8 0-333.4-154.9-333.4-349.2 0-191.7 152.2-346.6 333.4-346.6zM15192 563.1c141.7 141.8 328.1 220.5 519.8 220.5 204.8 0 380.7-70.9 522.5-204.8 149.6-141.8 231.1-336.1 231.1-527.7 0-212.7-70.9-388.6-212.7-530.4-144.4-144.4-323-220.5-535.6-220.5-215.3 0-388.6 73.5-533 225.8-136.6 141.8-207.4 323-207.4 519.8 0 196.9 76.1 378.1 215.3 517.3"/><path id="path16" class="st0" d="M12680.3-306c183.8 0 333.4 154.9 333.4 346.6 0 194.3-149.7 349.2-333.4 349.2s-333.4-154.9-333.4-349.2c-.1-191.7 152.2-346.6 333.4-346.6zm-527.8 869.1c141.8 141.8 328.2 220.5 519.8 220.5 204.8 0 380.7-70.9 522.5-204.8 149.7-141.8 231.1-336.1 231.1-527.7 0-212.7-70.9-388.6-212.7-530.4-144.4-144.4-323-220.5-535.6-220.5-215.3 0-388.6 73.5-533 225.8-136.5 141.8-207.4 323-207.4 519.8 0 196.9 76.2 378.1 215.3 517.3"/><path id="path18" class="st0" d="M7639.7-660.4h412.2v1952.9l-412.2-86V-660.4"/><path id="path20" class="st0" d="M7010.4-660.2h412.2V749.7h-412.2V-660.2z"/><path id="path22" class="st0" d="M7216.5 1416.2c-139.7 0-252.9-113.2-252.9-252.9s113.2-252.9 252.9-252.9 252.9 113.2 252.9 252.9-113.3 252.9-252.9 252.9"/><path id="path24" class="st0" d="M8909.1-72.1l-265.2 821.8h-459.5l517.2-1323.3-200.3-543.4h417.5l736 1866.7h-446.3L8909.1-72.1"/><path id="path26" class="st0" d="M4499.8-288.8c-212.7 0-364.9 149.7-364.9 346.6 0 189 152.3 349.2 349.2 349.2 194.3 0 343.9-152.3 343.9-354.4 0-194.4-149.7-341.4-328.2-341.4zm616.8 338.9c0 155.6 37.8 301.5 110.5 431.7v814.5l-414.8-85.9V596c-94.5 120.8-225.8 178.5-396.5 178.5-178.5 0-338.7-65.6-470-194.3-147-141.7-225.8-322.9-225.8-525 0-220.5 84-409.6 246.8-554 123.4-110.3 270.4-165.4 441.1-165.4 168 0 294.1 44.6 417.5 165.4v-157.5H5227v266.9c-72.2 131.1-110.4 279.2-110.4 439.5"/><path id="path28" class="st0" d="M11858.5 439.7c-17.5 75.2-47.2 134.7-92.3 187.4-78.4 91.6-188.8 134.8-321.7 146.2-108 9.3-201.1-4.6-290.8-51.9-97.1-51.3-207.4-171.1-207.4-171.1s-109.6 225.8-383.7 225.8c-193.5 0-311.5-82.1-390.8-215.3v189h-375.4v-1410h393.8V82.1c0 154.5 36 307.8 244.5 307.8 179.9 0 193.9-146.5 193.9-268.2v-781.9h407V86.9c0 238.1 103.5 302.9 246.1 302.9 115.1 0 192.3-52 192.3-268.2v-781.9h404.3v268.7c-72.3 132.4-110.4 281.2-110.4 440.2.1 137.7 31.9 270.4 90.6 391.1"/><path id="path30" class="st0" d="M14102.7 1292.5l-420.1-86v-464h-178.5v-408h178.5v-994.7h420.1v994.7h186.4v408.1h-186.4v549.9"/><path id="path32" class="st0" d="M14677.4 910.4c139.7 0 252.9 113.2 252.9 252.9s-113.2 252.9-252.9 252.9-252.9-113.2-252.9-252.9 113.2-252.9 252.9-252.9"/><path id="path34" class="st0" d="M14883.5 406.5v343.2h-412.2V-660.2h412.2v336.3c-49.7 114.1-76.1 238.3-76.1 369.7 0 126.2 26.6 248.2 76.1 360.7"/><path id="path36" class="st0" d="M17412.8 775.9c-186.5 0-317.7-73.5-404.4-215.3l5.3 189h-393.9V-660.2h407v764c0 189 86.6 286.2 249.4 286.2 160.2 0 202.2-89.3 202.2-286.2v-764h414.8v929.4c0 323-189 506.7-480.4 506.7"/><path id="path38" class="st0" d="M6065.7-292.7c178.5 0 328.2 147.1 328.2 341.3 0 202.2-149.7 354.4-343.9 354.4-196.9 0-349.2-160.1-349.2-349.2-.1-196.8 152.2-346.5 364.9-346.5zm325.5-210c-123.4-120.8-249.4-165.4-417.4-165.4-170.7 0-317.7 55.2-441.1 165.4-162.8 144.5-246.8 333.5-246.8 554 0 202.1 78.8 383.3 225.8 525.1 131.3 128.7 291.4 194.3 470 194.3 170.6 0 301.9-57.7 396.5-178.6v157.6H6793V-660.2h-401.7v157.5"/></g></g></svg>