<!--
  ~ Copyright 2021 Chaos Mesh Authors.
  ~
  ~ Licensed under the Apache License, Version 2.0 (the "License");
  ~ you may not use this file except in compliance with the License.
  ~ You may obtain a copy of the License at
  ~
  ~ http://www.apache.org/licenses/LICENSE-2.0
  ~
  ~ Unless required by applicable law or agreed to in writing, software
  ~ distributed under the License is distributed on an "AS IS" BASIS,
  ~ WITHOUT WARRANTIES OR CONDITIONS OF ANY KIND, either express or implied.
  ~ See the License for the specific language governing permissions and
  ~ limitations under the License.
  ~
-->
<svg xmlns="http://www.w3.org/2000/svg" viewBox="0 0 538.38 137.64"><defs><style>.cls-1{fill:#fff;}.cls-2{fill:#f25c7c;}.cls-3{fill:#10a6fa;}</style></defs><g id="图层_2" data-name="图层 2"><g id="Layer_2" data-name="Layer 2"><path class="cls-1" d="M22,26.23a6.29,6.29,0,0,1,2.18.4A74.56,74.56,0,0,1,30.22,2.75a1.9,1.9,0,1,0-3.41-1.69,76.25,76.25,0,0,0-6.49,25.39A6.28,6.28,0,0,1,22,26.23Z"/><path class="cls-1" d="M28.25,32.53a6.22,6.22,0,0,1-.91,3.26c2.73.48,5.62.94,8.68,1.35l.25,0a1.9,1.9,0,0,0,.25-3.79c-2.91-.39-5.67-.83-8.29-1.3C28.24,32.23,28.25,32.38,28.25,32.53Z"/><path class="cls-1" d="M1.23,29.09a130.3,130.3,0,0,0,14.48,4.26,5.46,5.46,0,0,1-.06-.82,6.34,6.34,0,0,1,.73-2.94,133.49,133.49,0,0,1-13.8-4.06,1.9,1.9,0,0,0-1.35,3.56Z"/><path class="cls-1" d="M135.17,64.32a1.9,1.9,0,0,0-2.41-1.19A186,186,0,0,1,108,69a96.5,96.5,0,0,1-6.88-32.66c20-2.89,32.72-7.17,32.86-7.22a1.9,1.9,0,0,0-1.22-3.6c-.14,0-12.42,4.16-31.72,7A75.21,75.21,0,0,1,107.4,2.75,1.9,1.9,0,1,0,104,1.06a77.46,77.46,0,0,0-6.76,32c-2.2.29-4.49.56-6.84.8a249.52,249.52,0,0,1-27.9,1.29l0-.78A75.14,75.14,0,0,1,68.81,2.75,1.9,1.9,0,0,0,65.4,1.06a77.57,77.57,0,0,0-6.74,33.37c0,.21,0,.41,0,.63-3.67-.1-7.32-.27-10.93-.54-1-.07-2-.15-3-.24a1.9,1.9,0,1,0-.34,3.79l3.07.25q5.64.41,11.37.54A95.42,95.42,0,0,0,63.5,63.72c-.29.16-.59.32-.88.51a12.4,12.4,0,0,0-5.45,8.39c-3.16-.1-6.3-.25-9.42-.48C41.83,71.7,36.3,71,31.28,70.21c-3.27-8.6-6.42-17.83-7.23-31.74a6.35,6.35,0,0,1-2.1.37,6.42,6.42,0,0,1-1.71-.24,98.84,98.84,0,0,0,6.69,30.86A156.51,156.51,0,0,1,2.58,63.15a1.9,1.9,0,0,0-1.35,3.56,158.55,158.55,0,0,0,27.28,6.91c0,.11.08.22.13.33,3,7.72,5.77,15,6.94,25.08a71.76,71.76,0,0,1,.45,9.5c-20-2.71-33.29-7.7-33.45-7.76a1.9,1.9,0,0,0-1.35,3.55c.65.25,14.11,5.31,34.65,8a87.67,87.67,0,0,1-4.52,22.7,1.9,1.9,0,0,0,1.09,2.46,2.08,2.08,0,0,0,.68.12,1.9,1.9,0,0,0,1.78-1.22,88,88,0,0,0,4.77-23.6c2.51.29,5.1.54,7.79.73q8.66.63,17.48.63c3.12,0,6.25-.08,9.39-.19A86.63,86.63,0,0,1,70,135.06,1.9,1.9,0,0,0,71,137.52a2.08,2.08,0,0,0,.68.12,1.9,1.9,0,0,0,1.78-1.22,88.2,88.2,0,0,0,4.7-22.59q6.27-.35,12.58-1a1.91,1.91,0,1,0-.39-3.79q-6,.61-12,.94A78.29,78.29,0,0,0,78,98.58a79.67,79.67,0,0,0-2.63-13c.32-.17.64-.32,1-.52a12.46,12.46,0,0,0,5.38-7.88c.08-.42.15-.83.19-1.25,3-.2,6-.43,8.94-.74C96,74.7,101,74,105.55,73.27c.09.22.18.45.26.68,3,7.72,5.78,15,7,25.08.26,2.24.4,4.45.45,6.61-4.25.85-9.09,1.69-14.42,2.42a1.9,1.9,0,0,0,.26,3.78h.26c5.12-.7,9.76-1.5,13.88-2.3a87.13,87.13,0,0,1-4.66,25.53,1.92,1.92,0,0,0,1.1,2.46,2.08,2.08,0,0,0,.68.12,1.9,1.9,0,0,0,1.78-1.22A88.93,88.93,0,0,0,117,108.75a163.36,163.36,0,0,0,17-4.4,1.91,1.91,0,0,0-1.22-3.61A162.47,162.47,0,0,1,117,104.86c-.07-2-.21-4.15-.46-6.28-1.22-10.52-4.24-18.37-7.16-26A186.63,186.63,0,0,0,134,66.73,1.9,1.9,0,0,0,135.17,64.32ZM74.58,110.19a241.71,241.71,0,0,1-26.83-.43c-2.73-.2-5.36-.46-7.91-.75a76.08,76.08,0,0,0-.48-10.43c-1.13-9.74-3.8-17.19-6.51-24.27,4.52.67,9.41,1.24,14.62,1.62,3.2.24,6.42.4,9.65.5a12.48,12.48,0,0,0,12.35,10.7,12.2,12.2,0,0,0,2.26-.23A74.68,74.68,0,0,1,74.17,99,73.09,73.09,0,0,1,74.58,110.19Zm3.37-34a1.46,1.46,0,0,1,0,.22,8.57,8.57,0,0,1-3.74,5.47h0a8.44,8.44,0,0,1-3.57,1.32v0l-.39,0h-.1a8.44,8.44,0,0,1-2.45-.14A8.57,8.57,0,0,1,62.2,79.4a8.22,8.22,0,0,1-.8-1.56h0c-.09-.24-.18-.48-.25-.72a2.5,2.5,0,0,0-.07-.26c0-.11-.06-.21-.08-.32h0a8.64,8.64,0,0,1,0-3.82h0c0-.13.08-.26.11-.4s0-.18.08-.28.13-.37.21-.56a1.07,1.07,0,0,1,.07-.19,6.59,6.59,0,0,1,.34-.71v0a8.5,8.5,0,0,1,2.87-3.13l.06,0h0a8.49,8.49,0,0,1,3.58-1.3v0l.26,0,.33,0c.16,0,.33,0,.5,0a8.45,8.45,0,0,1,1.79.19,8.57,8.57,0,0,1,5.47,3.74,4,4,0,0,1,.2.35c.11.2.22.4.32.61s.15.3.22.46a9.9,9.9,0,0,1,.34,1l0,.1h0a8.66,8.66,0,0,1,.15,3.82Zm12.44-4.77c-2.91.3-5.82.53-8.73.73A12.45,12.45,0,0,0,72,62.46a12.49,12.49,0,0,0-4.91,0,92.32,92.32,0,0,1-4.43-23.49L65,39a252.38,252.38,0,0,0,25.83-1.34c2.25-.23,4.44-.48,6.55-.76a99.1,99.1,0,0,0,6.84,32.78C99.86,70.32,95.24,71,90.39,71.45Z"/><circle class="cls-2" cx="98.99" cy="34.87" r="6.3"/><circle class="cls-2" cx="98.99" cy="34.87" r="2.1"/><circle class="cls-3" cx="29.87" cy="71.58" r="6.3"/><circle class="cls-3" cx="29.87" cy="71.58" r="2.1"/><circle class="cls-3" cx="60.47" cy="37.05" r="6.3"/><path class="cls-3" d="M106.75,64.64a6.31,6.31,0,1,0,6.3,6.3A6.3,6.3,0,0,0,106.75,64.64Z"/><circle class="cls-2" cx="21.88" cy="32.53" r="6.3"/><circle class="cls-2" cx="21.88" cy="32.53" r="2.1"/><circle class="cls-2" cx="37.59" cy="110.52" r="6.3"/><circle class="cls-2" cx="37.59" cy="110.52" r="2.1"/><circle class="cls-2" cx="114.98" cy="107.06" r="6.3"/><circle class="cls-3" cx="76.21" cy="112.28" r="6.3"/><circle class="cls-3" cx="76.21" cy="112.28" r="2.1"/><path class="cls-1" d="M29.94,80.86a9.29,9.29,0,1,1,9.29-9.28A9.29,9.29,0,0,1,29.94,80.86Zm0-14.76a5.48,5.48,0,1,0,5.48,5.48A5.48,5.48,0,0,0,29.94,66.1Z"/><path class="cls-1" d="M22,41.82a9.29,9.29,0,1,1,9.28-9.29A9.3,9.3,0,0,1,22,41.82Zm0-14.76a5.48,5.48,0,1,0,5.48,5.47A5.48,5.48,0,0,0,22,27.06Z"/><path class="cls-1" d="M60.54,46.33a9.29,9.29,0,1,1,9.28-9.28A9.29,9.29,0,0,1,60.54,46.33Zm0-14.76A5.48,5.48,0,1,0,66,37.05,5.49,5.49,0,0,0,60.54,31.57Z"/><path class="cls-1" d="M99.06,44.15a9.28,9.28,0,1,1,9.28-9.28A9.3,9.3,0,0,1,99.06,44.15Zm0-14.76a5.48,5.48,0,1,0,5.47,5.48A5.49,5.49,0,0,0,99.06,29.39Z"/><path class="cls-1" d="M106.82,80.23a9.29,9.29,0,1,1,9.29-9.29A9.3,9.3,0,0,1,106.82,80.23Zm0-14.76a5.48,5.48,0,1,0,5.48,5.47A5.47,5.47,0,0,0,106.82,65.47Z"/><path class="cls-1" d="M115.05,116.35a9.29,9.29,0,1,1,9.28-9.29A9.3,9.3,0,0,1,115.05,116.35Zm0-14.76a5.48,5.48,0,1,0,5.48,5.47A5.48,5.48,0,0,0,115.05,101.59Z"/><path class="cls-1" d="M76.28,121.56a9.28,9.28,0,1,1,9.29-9.28A9.29,9.29,0,0,1,76.28,121.56Zm0-14.76a5.48,5.48,0,1,0,5.48,5.48A5.48,5.48,0,0,0,76.28,106.8Z"/><path class="cls-1" d="M37.66,119.81A9.29,9.29,0,1,1,47,110.52,9.3,9.3,0,0,1,37.66,119.81Zm0-14.76a5.48,5.48,0,1,0,5.48,5.47A5.47,5.47,0,0,0,37.66,105.05Z"/><path class="cls-1" d="M187.9,49c-7.51,0-12,6.11-12,16.35s4.33,16.1,11.71,16.1c5.92,0,9.68-3.37,10.25-9.29h9.29c-.57,10.63-8.27,17.31-19.79,17.31-12.92,0-21-9.35-21-24.24s8.14-24.38,21.25-24.38c10.82,0,18.52,6,19.35,16.48h-9.1C197.32,55,195.85,49,187.9,49Z"/><path class="cls-1" d="M229.58,60.68a6.55,6.55,0,0,0-6.87,6.75V88.05H213.8V41.66h8.91v17a11.2,11.2,0,0,1,10-5.54c4.9,0,11.2,2.36,11.2,11.9v23h-8.91v-21C235.05,63.36,233.71,60.68,229.58,60.68Z"/><path class="cls-1" d="M250.64,79.2c0-6.17,3.31-9.67,10.12-10.82l3.56-.63c2.93-.45,7.13-.64,7.13-4q0-3.43-5.16-3.44c-4.39,0-5.85,1.15-6.3,4.71H251.4c.57-8,5.41-11.9,14.7-11.9s14.06,3.56,14.06,10.56V82.76c0,1.79.45,2.74,2,4.2v1.09h-9.67a4.39,4.39,0,0,1-1-3.44c-3.12,3.25-6.62,4.9-10.44,4.9C254.84,89.51,250.64,85.37,250.64,79.2Zm20.81-7.38a11.07,11.07,0,0,1-3.76,1.08l-3.05.57c-3.69.77-5.09,2-5.09,4.71s1.84,4.14,4.83,4.14c4.52,0,7.07-2.93,7.07-8.08Z"/><path class="cls-1" d="M320.63,71.57c0,11-6.55,17.94-17,17.94s-17-6.87-17-18.2,6.43-18.2,16.93-18.2C314.33,53.11,320.63,59.92,320.63,71.57Zm-25.07-.26c0,6.55,3.25,11,8.08,11s8.08-4.46,8.08-10.88c0-6.75-3.18-11.14-8.08-11.14S295.56,64.76,295.56,71.31Z"/><path class="cls-1" d="M340.8,82.51c4.14,0,6.62-1.27,6.62-3.37,0-1.4-.76-2.1-3-2.8L333.8,73c-2-.64-7.51-1.72-7.51-8.46,0-7.07,5.41-11.46,14.13-11.46,9.23,0,14.83,4.39,15,11.65h-8.59c-.07-3.12-2.17-4.65-6.43-4.65-3.12,0-5.16,1.27-5.16,3.18,0,1.4.64,1.91,3.12,2.67l11.27,3.25c4.51,1.34,6.74,4.2,6.74,8.65,0,4.78-3,11.65-15,11.65-10.43,0-16-3.94-16.22-11.45h8.71C334.31,80.41,335.2,82.51,340.8,82.51Z"/><path class="cls-1" d="M390.88,88.05h-9.54V41.66h14.25l8.4,36.9,8.14-36.9h14.39V88.05H417V51.9l-8.21,36.15h-9.54L390.88,51.9Z"/><path class="cls-1" d="M466.16,72.14a13.89,13.89,0,0,1-.07,1.53h-23c.19,4.64,1.14,9,7.12,9A6.89,6.89,0,0,0,457,78.37h8.79c-2,6.75-8.21,11.14-15.91,11.14-9.74,0-15.72-6.75-15.72-17.75,0-11.52,6-18.65,15.91-18.65C456.93,53.11,466.16,56.93,466.16,72.14ZM449.93,59.92c-3.95,0-6.17,2.61-6.75,7.83h13.69C456.48,62.72,454.07,59.92,449.93,59.92Z"/><path class="cls-1" d="M486.33,82.51c4.13,0,6.61-1.27,6.61-3.37,0-1.4-.76-2.1-3-2.8L479.33,73c-2-.64-7.51-1.72-7.51-8.46,0-7.07,5.41-11.46,14.13-11.46,9.22,0,14.82,4.39,14.95,11.65h-8.59c-.07-3.12-2.17-4.65-6.43-4.65-3.12,0-5.15,1.27-5.15,3.18,0,1.4.63,1.91,3.12,2.67l11.26,3.25c4.52,1.34,6.74,4.2,6.74,8.65,0,4.78-3,11.65-15,11.65-10.44,0-16-3.94-16.23-11.45h8.72C479.84,80.41,480.73,82.51,486.33,82.51Z"/><path class="cls-1" d="M524,60.68a6.56,6.56,0,0,0-6.88,6.75V88.05h-8.91V41.66h8.91v17a11.23,11.23,0,0,1,10.06-5.54c4.9,0,11.2,2.36,11.2,11.9v23h-8.91v-21C529.47,63.36,528.13,60.68,524,60.68Z"/></g></g></svg>
