<?xml version="1.0" encoding="iso-8859-1"?>
<!-- Generator: Adobe Illustrator 19.0.0, SVG Export Plug-In . SVG Version: 6.00 Build 0)  -->
<svg version="1.1" id="Capa_1" xmlns="http://www.w3.org/2000/svg" xmlns:xlink="http://www.w3.org/1999/xlink" x="0px" y="0px"
	 viewBox="0 0 512 512" style="enable-background:new 0 0 512 512;" xml:space="preserve">
<g>
	<g>
		<path d="M512,165c0-5.987-1.161-11.808-3.45-17.301c-0.002-0.004-0.004-0.009-0.006-0.013L458.539,27.69
			C451.529,10.869,435.224,0,417.001,0H94.999C76.776,0,60.471,10.869,53.461,27.69L3.45,147.698C1.161,153.192,0,159.013,0,165v62
			c0,11.517,4.354,22.032,11.495,30C4.354,264.968,0,275.483,0,287v60c0,11.517,4.354,22.032,11.495,30
			C4.354,384.968,0,395.483,0,407v60c0,24.813,20.187,45,45,45h422c24.813,0,45-20.187,45-45v-60c0-11.517-4.354-22.032-11.495-30
			c7.142-7.968,11.495-18.483,11.495-30v-60c0-11.517-4.354-22.032-11.495-30c7.142-7.968,11.495-18.483,11.495-30V165z
			 M81.153,39.23C83.49,33.623,88.925,30,94.999,30h322.002c6.074,0,11.509,3.623,13.846,9.23l33.66,80.77H47.493L81.153,39.23z
			 M482,467c0,8.271-6.729,15-15,15H45c-8.271,0-15-6.729-15-15v-60c0-8.271,6.729-15,15-15h422c8.271,0,15,6.729,15,15V467z
			 M482,347c0,8.271-6.729,15-15,15H45c-8.271,0-15-6.729-15-15v-60c0-8.271,6.729-15,15-15h422c8.271,0,15,6.729,15,15V347z
			 M482,227c0,8.271-6.729,15-15,15H45c-8.271,0-15-6.729-15-15v-62c0-8.342,6.736-15,15-15h422c8.29,0,15,6.684,15,15V227z"/>
	</g>
</g>
<g>
	<g>
		<path d="M437,422H165c-8.284,0-15,6.716-15,15s6.716,15,15,15h272c8.284,0,15-6.716,15-15S445.284,422,437,422z"/>
	</g>
</g>
<g>
	<g>
		<path d="M437,180H165c-8.284,0-15,6.716-15,15s6.716,15,15,15h272c8.284,0,15-6.716,15-15S445.284,180,437,180z"/>
	</g>
</g>
<g>
	<g>
		<path d="M75,180c-8.284,0-15,6.716-15,15s6.716,17,15,17s15-8.716,15-17S83.284,180,75,180z"/>
	</g>
</g>
<g>
	<g>
		<path d="M437,302H165c-8.284,0-15,6.716-15,15s6.716,15,15,15h272c8.284,0,15-6.716,15-15S445.284,302,437,302z"/>
	</g>
</g>
<g>
	<g>
		<circle cx="75" cy="317" r="15"/>
	</g>
</g>
<g>
	<g>
		<circle cx="75" cy="437" r="15"/>
	</g>
</g>
<g>
</g>
<g>
</g>
<g>
</g>
<g>
</g>
<g>
</g>
<g>
</g>
<g>
</g>
<g>
</g>
<g>
</g>
<g>
</g>
<g>
</g>
<g>
</g>
<g>
</g>
<g>
</g>
<g>
</g>
</svg>
