<svg xmlns="http://www.w3.org/2000/svg" viewBox="0 0 464.73 113.72"><defs><style>.cls-1{fill:#172d72;}.cls-2{fill:#f25c7c;}.cls-3{fill:#10a6fa;}</style></defs><g id="Layer_2" data-name="Layer 2"><g id="Layer_2-2" data-name="Layer 2"><path class="cls-1" d="M18.14,21.67a5.18,5.18,0,0,1,1.8.33A61.41,61.41,0,0,1,25,2.27,1.58,1.58,0,0,0,24.26.16a1.59,1.59,0,0,0-2.11.71,63.41,63.41,0,0,0-5.36,21A5,5,0,0,1,18.14,21.67Z"/><path class="cls-1" d="M23.34,26.88a5.23,5.23,0,0,1-.75,2.69c2.25.4,4.64.78,7.17,1.11l.21,0a1.57,1.57,0,0,0,.21-3.13c-2.41-.32-4.69-.69-6.86-1.07C23.33,26.63,23.34,26.75,23.34,26.88Z"/><path class="cls-1" d="M1,24a109.11,109.11,0,0,0,12,3.53,5,5,0,0,1,.56-3.11A107.3,107.3,0,0,1,2.13,21.09,1.57,1.57,0,0,0,1,24Z"/><path class="cls-1" d="M111.68,53.14a1.57,1.57,0,0,0-2-1A152.65,152.65,0,0,1,89.23,57a79.74,79.74,0,0,1-5.68-27,169.61,169.61,0,0,0,27.15-6,1.57,1.57,0,0,0-1-3,165.76,165.76,0,0,1-26.21,5.78A62.22,62.22,0,0,1,88.73,2.27,1.57,1.57,0,1,0,85.92.87a64,64,0,0,0-5.59,26.42q-2.73.36-5.65.66A208,208,0,0,1,51.63,29c0-.22,0-.43,0-.65a62.08,62.08,0,0,1,5.24-26.1A1.57,1.57,0,0,0,56.14.16,1.59,1.59,0,0,0,54,.87a64.17,64.17,0,0,0-5.57,27.57c0,.18,0,.35,0,.52-3-.08-6-.22-9-.44L37,28.32a1.57,1.57,0,0,0-.28,3.13c.84.08,1.7.15,2.54.21q4.66.33,9.39.45a78.59,78.59,0,0,0,3.86,20.53c-.25.14-.49.27-.73.43A10.26,10.26,0,0,0,47.23,60q-3.91-.12-7.78-.4C34.56,59.24,30,58.67,25.84,58a81.37,81.37,0,0,1-6-26.22,5.2,5.2,0,0,1-1.73.3,5.53,5.53,0,0,1-1.42-.2,81.42,81.42,0,0,0,5.53,25.49A129.52,129.52,0,0,1,2.13,52.17,1.57,1.57,0,1,0,1,55.11a131.63,131.63,0,0,0,22.55,5.72c0,.08.07.17.1.26,2.45,6.39,4.77,12.41,5.74,20.73a60.15,60.15,0,0,1,.37,7.85A138.59,138.59,0,0,1,2.13,83.25,1.57,1.57,0,1,0,1,86.19a138.14,138.14,0,0,0,28.63,6.64,72,72,0,0,1-3.73,18.76,1.57,1.57,0,0,0,.9,2,1.63,1.63,0,0,0,.57.1,1.56,1.56,0,0,0,1.46-1,72.07,72.07,0,0,0,3.94-19.49c2.08.23,4.22.43,6.44.6q7.14.53,14.44.52c2.58,0,5.17-.07,7.76-.16a71.53,71.53,0,0,1-3.63,17.41,1.57,1.57,0,0,0,.91,2,1.54,1.54,0,0,0,.56.1,1.57,1.57,0,0,0,1.47-1A73.28,73.28,0,0,0,64.61,94c3.45-.18,6.92-.45,10.39-.8a1.57,1.57,0,0,0-.32-3.13c-3.3.34-6.61.59-9.9.77a63.3,63.3,0,0,0-.37-9.43,66.76,66.76,0,0,0-2.18-10.71c.26-.14.53-.27.78-.43a10.29,10.29,0,0,0,4.45-6.51c.07-.34.12-.69.16-1,2.46-.17,4.92-.36,7.38-.61,4.31-.45,8.41-1,12.21-1.63l.21.56c2.46,6.39,4.77,12.41,5.74,20.73.22,1.85.33,3.68.37,5.46-3.51.7-7.5,1.39-11.91,2a1.57,1.57,0,0,0,.21,3.13l.22,0c4.23-.58,8.07-1.23,11.47-1.89a71.89,71.89,0,0,1-3.85,21.09,1.57,1.57,0,0,0,.91,2,1.54,1.54,0,0,0,.56.1,1.57,1.57,0,0,0,1.47-1,73.48,73.48,0,0,0,4.08-22.86,132.78,132.78,0,0,0,14-3.64,1.57,1.57,0,0,0-1-3,131.3,131.3,0,0,1-13,3.4c0-1.69-.17-3.42-.37-5.18-1-8.69-3.51-15.18-5.92-21.46a155.76,155.76,0,0,0,20.33-4.86A1.57,1.57,0,0,0,111.68,53.14ZM61.61,91a199.1,199.1,0,0,1-22.16-.36c-2.25-.16-4.43-.38-6.53-.62a62,62,0,0,0-.4-8.61A78.7,78.7,0,0,0,27.14,61.4c3.73.55,7.77,1,12.08,1.34,2.64.19,5.3.32,8,.41A10.3,10.3,0,0,0,57.4,72a10.68,10.68,0,0,0,1.87-.19,62.45,62.45,0,0,1,2,10A59,59,0,0,1,61.61,91ZM64.41,63l0,.17a7.09,7.09,0,0,1-3.09,4.52h0a7.16,7.16,0,0,1-2.95,1.09h0l-.32,0h-.09a7.25,7.25,0,0,1-2-.12,7.09,7.09,0,0,1-4.52-3.09,6.55,6.55,0,0,1-.66-1.29h0a4.1,4.1,0,0,1-.2-.59,1.8,1.8,0,0,1-.06-.22c0-.09,0-.17-.07-.26h0a7.12,7.12,0,0,1,0-3.15h0a3.18,3.18,0,0,1,.09-.33l.06-.23c0-.16.11-.32.17-.47a1,1,0,0,0,.06-.16c.09-.2.18-.39.28-.58v0a7,7,0,0,1,2.37-2.59l0,0h0a7.21,7.21,0,0,1,3-1.07h0l.21,0,.27,0c.14,0,.27,0,.41,0a6.77,6.77,0,0,1,1.48.16,7.07,7.07,0,0,1,4.52,3.08,2.19,2.19,0,0,1,.16.3c.1.16.19.33.28.5s.12.25.17.38a5.71,5.71,0,0,1,.28.79l0,.08h0A7.14,7.14,0,0,1,64.4,63ZM74.68,59c-2.41.25-4.81.44-7.21.6A10.44,10.44,0,0,0,66,56.05a10.34,10.34,0,0,0-10.57-4.48,75.78,75.78,0,0,1-3.66-19.41l1.89,0A210.09,210.09,0,0,0,75,31.08c1.86-.19,3.67-.41,5.42-.63a81.62,81.62,0,0,0,5.65,27.08C82.51,58.1,78.69,58.62,74.68,59Z"/><circle class="cls-2" cx="81.78" cy="28.81" r="5.21"/><circle class="cls-2" cx="81.78" cy="28.81" r="1.74"/><circle class="cls-3" cx="24.68" cy="59.14" r="5.21"/><circle class="cls-3" cx="24.68" cy="59.14" r="1.74"/><circle class="cls-3" cx="49.96" cy="30.61" r="5.21"/><path class="cls-3" d="M88.2,53.41a5.21,5.21,0,1,0,5.2,5.2A5.2,5.2,0,0,0,88.2,53.41Z"/><circle class="cls-2" cx="18.08" cy="26.88" r="5.21"/><circle class="cls-2" cx="18.08" cy="26.88" r="1.74"/><circle class="cls-2" cx="31.06" cy="91.31" r="5.21"/><circle class="cls-2" cx="31.06" cy="91.31" r="1.74"/><circle class="cls-2" cx="94.99" cy="88.46" r="5.21"/><circle class="cls-3" cx="62.97" cy="92.77" r="5.21"/><circle class="cls-3" cx="62.97" cy="92.77" r="1.74"/><path class="cls-1" d="M24.74,66.81a7.67,7.67,0,1,1,7.67-7.67A7.68,7.68,0,0,1,24.74,66.81Zm0-12.2a4.53,4.53,0,1,0,4.52,4.53A4.53,4.53,0,0,0,24.74,54.61Z"/><path class="cls-1" d="M18.14,34.55a7.67,7.67,0,1,1,7.67-7.67A7.68,7.68,0,0,1,18.14,34.55Zm0-12.19a4.53,4.53,0,1,0,4.52,4.52A4.53,4.53,0,0,0,18.14,22.36Z"/><path class="cls-1" d="M50,38.28a7.67,7.67,0,1,1,7.67-7.67A7.68,7.68,0,0,1,50,38.28Zm0-12.2a4.53,4.53,0,1,0,4.52,4.53A4.53,4.53,0,0,0,50,26.08Z"/><path class="cls-1" d="M81.84,36.48a7.67,7.67,0,1,1,7.67-7.67A7.68,7.68,0,0,1,81.84,36.48Zm0-12.2a4.53,4.53,0,1,0,4.53,4.53A4.53,4.53,0,0,0,81.84,24.28Z"/><path class="cls-1" d="M88.26,66.28a7.67,7.67,0,1,1,7.67-7.66A7.68,7.68,0,0,1,88.26,66.28Zm0-12.19a4.53,4.53,0,1,0,4.52,4.53A4.53,4.53,0,0,0,88.26,54.09Z"/><path class="cls-1" d="M95.05,96.13a7.67,7.67,0,1,1,7.67-7.67A7.68,7.68,0,0,1,95.05,96.13Zm0-12.2a4.53,4.53,0,1,0,4.53,4.53A4.53,4.53,0,0,0,95.05,83.93Z"/><path class="cls-1" d="M63,100.44a7.67,7.67,0,1,1,7.67-7.67A7.68,7.68,0,0,1,63,100.44Zm0-12.2a4.53,4.53,0,1,0,4.52,4.53A4.53,4.53,0,0,0,63,88.24Z"/><path class="cls-1" d="M31.12,99a7.67,7.67,0,1,1,7.67-7.67A7.68,7.68,0,0,1,31.12,99Zm0-12.19a4.53,4.53,0,1,0,4.52,4.52A4.53,4.53,0,0,0,31.12,86.79Z"/><path class="cls-1" d="M155.24,40.52c-6.2,0-9.93,5-9.93,13.51s3.57,13.3,9.67,13.3c4.89,0,8-2.79,8.47-7.68h7.67c-.47,8.78-6.83,14.3-16.35,14.3-10.67,0-17.35-7.72-17.35-20S144.15,33.79,155,33.79c8.94,0,15.3,5,16,13.61h-7.51C163,45.46,161.82,40.52,155.24,40.52Z"/><path class="cls-1" d="M189.68,50.14A5.41,5.41,0,0,0,184,55.71v17h-7.36V34.42H184v14a9.27,9.27,0,0,1,8.31-4.57c4.05,0,9.25,1.95,9.25,9.83v19H194.2V55.39C194.2,52.35,193.1,50.14,189.68,50.14Z"/><path class="cls-1" d="M207.08,65.44c0-5.1,2.73-8,8.36-8.94l2.94-.53c2.42-.37,5.89-.52,5.89-3.31q0-2.83-4.26-2.84c-3.63,0-4.84,1-5.2,3.89h-7.1c.47-6.57,4.47-9.83,12.14-9.83s11.62,2.94,11.62,8.73V68.38a4,4,0,0,0,1.69,3.47v.89h-8a3.62,3.62,0,0,1-.84-2.83,11.76,11.76,0,0,1-8.62,4C210.55,74,207.08,70.54,207.08,65.44Zm17.19-6.1a9.36,9.36,0,0,1-3.1.89l-2.53.47c-3,.64-4.2,1.69-4.2,3.89S216,68,218.43,68c3.74,0,5.84-2.42,5.84-6.67Z"/><path class="cls-1" d="M264.91,59.13c0,9.09-5.42,14.82-14,14.82s-14-5.67-14-15,5.31-15,14-15C259.7,43.88,264.91,49.51,264.91,59.13Zm-20.72-.21c0,5.41,2.69,9.09,6.68,9.09s6.68-3.68,6.68-9c0-5.57-2.63-9.2-6.68-9.2S244.19,53.5,244.19,58.92Z"/><path class="cls-1" d="M281.57,68.17c3.42,0,5.47-1,5.47-2.79,0-1.15-.63-1.73-2.47-2.31l-8.78-2.73c-1.63-.53-6.2-1.42-6.2-7,0-5.83,4.47-9.46,11.67-9.46,7.62,0,12.25,3.63,12.35,9.62h-7.09c-.06-2.57-1.79-3.84-5.31-3.84-2.58,0-4.26,1.06-4.26,2.63,0,1.16.52,1.58,2.57,2.21l9.31,2.68c3.73,1.11,5.57,3.47,5.57,7.15,0,4-2.47,9.62-12.41,9.62-8.62,0-13.19-3.26-13.4-9.46h7.2C276.21,66.44,277,68.17,281.57,68.17Z"/><path class="cls-1" d="M323,72.74h-7.89V34.42h11.78l6.94,30.49,6.73-30.49h11.88V72.74H344.5V42.88l-6.78,29.86h-7.89L323,42.88Z"/><path class="cls-1" d="M385.14,59.6c0,.37,0,.63-.05,1.26h-19c.15,3.84.94,7.47,5.88,7.47a5.7,5.7,0,0,0,5.63-3.58h7.26C383.2,70.33,378,74,371.68,74c-8,0-13-5.57-13-14.66,0-9.52,5-15.41,13.14-15.41C377.52,43.88,385.14,47,385.14,59.6ZM371.73,49.51c-3.26,0-5.1,2.15-5.57,6.46h11.31C377.15,51.82,375.15,49.51,371.73,49.51Z"/><path class="cls-1" d="M401.81,68.17c3.41,0,5.46-1,5.46-2.79,0-1.15-.63-1.73-2.47-2.31L396,60.34c-1.63-.53-6.2-1.42-6.2-7,0-5.83,4.47-9.46,11.67-9.46,7.62,0,12.25,3.63,12.36,9.62h-7.1c-.06-2.57-1.79-3.84-5.31-3.84-2.58,0-4.26,1.06-4.26,2.63,0,1.16.52,1.58,2.57,2.21l9.31,2.68c3.73,1.11,5.57,3.47,5.57,7.15,0,4-2.47,9.62-12.4,9.62-8.63,0-13.2-3.26-13.41-9.46H396C396.44,66.44,397.18,68.17,401.81,68.17Z"/><path class="cls-1" d="M432.93,50.14a5.41,5.41,0,0,0-5.68,5.57v17h-7.36V34.42h7.36v14a9.27,9.27,0,0,1,8.31-4.57c4.05,0,9.25,1.95,9.25,9.83v19h-7.36V55.39C437.45,52.35,436.35,50.14,432.93,50.14Z"/><path class="cls-1" d="M464.73,40.39a6.62,6.62,0,1,1-6.6-6.6A6.6,6.6,0,0,1,464.73,40.39Zm-11.88,0A5.27,5.27,0,1,0,458.11,35,5.35,5.35,0,0,0,452.85,40.39Zm3.87,3.83h-1.66V36.55h4.12a2.08,2.08,0,0,1,.88,4c.9.41.94.53,1,2.75a.53.53,0,0,0,.33.58v.37H459.6a2.48,2.48,0,0,1-.25-1.4c0-.14,0-.28,0-.45v-.3c0-.59-.33-.85-1.05-.85h-1.6Zm1.79-4.4c.83,0,1.1-.22,1.1-.93s-.27-.94-1.1-.94h-1.79v1.87Z"/></g></g></svg>