<!--
  ~ Copyright 2022 Chaos Mesh Authors.
  ~
  ~ Licensed under the Apache License, Version 2.0 (the "License");
  ~ you may not use this file except in compliance with the License.
  ~ You may obtain a copy of the License at
  ~
  ~ http://www.apache.org/licenses/LICENSE-2.0
  ~
  ~ Unless required by applicable law or agreed to in writing, software
  ~ distributed under the License is distributed on an "AS IS" BASIS,
  ~ WITHOUT WARRANTIES OR CONDITIONS OF ANY KIND, either express or implied.
  ~ See the License for the specific language governing permissions and
  ~ limitations under the License.
  ~
-->
<svg id="Layer_1" data-name="Layer 1" xmlns="http://www.w3.org/2000/svg" viewBox="0 0 561.59998 150.69737"><defs><style>.cls-1{fill:none;}.cls-2{fill:#fff;}</style></defs><path class="cls-1" d="M310.56219,65.65079a7.97787,7.97787,0,0,0-1.06835,1.06836q-2.15823,2.89463-2.15815,8.25988t2.15815,8.27649a7.94533,7.94533,0,0,0,12.295,0q2.14159-2.91129,2.14209-8.27649,0-5.36518-2.14209-8.25988A7.97432,7.97432,0,0,0,310.56219,65.65079Z"/><path class="cls-1" d="M278.23108,76.96109l-2.07471.39343a13.39675,13.39675,0,0,0-4.18854,1.27778,4.2858,4.2858,0,0,0-2.15313,3.96319,4.19478,4.19478,0,0,0,1.31506,3.45709,4.92186,4.92186,0,0,0,3.198,1.06452,9.36879,9.36879,0,0,0,5.50354-1.7688q2.51659-1.77036,2.61346-6.4544V75.42172a9.99467,9.99467,0,0,1-1.76678.90052A14.61849,14.61849,0,0,1,278.23108,76.96109Z"/><path class="cls-1" d="M107.5343,67.42063a80.17724,80.17724,0,0,1-3.46857-16.52057,1.88993,1.88993,0,0,0-.545-1.342A9.83045,9.83045,0,0,1,96.092,43.60068a1.87517,1.87517,0,0,0-2.27142-.61585,172.8326,172.8326,0,0,1-17.63318.96375,1.68011,1.68011,0,0,0-1.62183.74506,9.83783,9.83783,0,0,1-5.91095,6.527,2.0695,2.0695,0,0,0-.33924,1.92731,130.09183,130.09183,0,0,0,3.02845,13.26489q.00987.0877.02734.17426a2.01887,2.01887,0,0,0,2.37891,1.57862,12.53108,12.53108,0,0,1,12.8681,8.66638c.47718,1.40436,1.08234,1.63483,2.31861,1.49921,4.4519-.48816,8.90606-.96009,13.3656-1.37165a1.27611,1.27611,0,0,0,1.03314-.47492,9.804,9.804,0,0,1,4.23334-7.38989A2.23451,2.23451,0,0,0,107.5343,67.42063Z"/><path class="cls-1" d="M79.61328,108.94162a91.86485,91.86485,0,0,0-2.26587-13.40881c-.32927-1.36072-.72937-1.83271-2.2818-1.747-6.32055.34888-11.314-3.36608-13.02771-9.56317-.32226-1.16529-.89654-1.41229-1.99731-1.46851-4.40051-.22491-8.81561-.38989-13.18506-.91211-1.75-.2091-3.34235-.35962-4.57922.38452a9.87343,9.87343,0,0,1-3.22437,3.6474,2.70345,2.70345,0,0,0,.14826,2.00922A75.93476,75.93476,0,0,1,43.43073,107.138a2.08087,2.08087,0,0,0,.55273,1.41535,9.81968,9.81968,0,0,1,7.27344,8.217,1.71288,1.71288,0,0,0,1.41443.52484c4.99267.19586,9.98236.75824,14.9718.48651,1.11072-.0605,4.39238-.45105,4.39238-.45105a9.82968,9.82968,0,0,1,7.30317-7.02209C79.63605,110.00479,79.67175,109.5922,79.61328,108.94162Z"/><path class="cls-1" d="M467.34808,63.824a6.70564,6.70564,0,0,0-5.22747,2.04046h.00006a10.00241,10.00241,0,0,0-2.33338,5.52723H474.876a8.02511,8.02511,0,0,0-2.33332-5.64245A7.38839,7.38839,0,0,0,467.34808,63.824Z"/><path class="cls-2" d="M195.348,52.19406q5.1677,0,7.79907,3.14514a13.88833,13.88833,0,0,1,2.41217,5.24152h9.84808a17.6927,17.6927,0,0,0-3.22619-9.009q-5.4412-7.99372-17.20848-7.99372a19.16631,19.16631,0,0,0-14.48841,5.96241q-6.5484,6.8475-6.54846,19.49237.00018,11.69687,5.75708,18.4113,5.75766,6.68373,15.81647,6.68378a18.56553,18.56553,0,0,0,13.33337-4.9472,21.93385,21.93385,0,0,0,6.46894-12.84234H205.527a15.423,15.423,0,0,1-2.43939,5.60217,9.13908,9.13908,0,0,1-7.72607,3.47321,9.95775,9.95775,0,0,1-8.14722-4.04669q-3.20609-4.04472-3.20605-12.17023,0-8.12429,3.038-12.56365A9.54742,9.54742,0,0,1,195.348,52.19406Z"/><path class="cls-2" d="M509.83087,71.49314q-8.16892-1.83446-9.51507-2.58832a2.44513,2.44513,0,0,1-1.3462-2.32569,2.7479,2.7479,0,0,1,1.26575-2.22808,7.25374,7.25374,0,0,1,4.2489-.94983q3.62256.00082,5.13025,1.90008a5.59653,5.59653,0,0,1,.9931,2.84992h9.11359q-.60974-6.55125-4.72687-9.22174a19.26881,19.26881,0,0,0-10.654-2.6698q-6.88989,0-10.68713,3.5542a11.24581,11.24581,0,0,0-3.79712,8.50134,8.2703,8.2703,0,0,0,2.43079,6.4212q2.4298,2.26127,8.37,3.76746,8.25183,1.99914,9.53314,2.8172a2.66408,2.66408,0,0,1,1.2818,2.3916,2.62527,2.62527,0,0,1-1.5907,2.457,9.43546,9.43546,0,0,1-4.28912.819q-4.59352.001-6.29742-1.86737a6.31117,6.31117,0,0,1-1.25269-3.5376h-9.24036a11.68,11.68,0,0,0,3.92493,9.05829q3.924,3.55362,12.15814,3.55365,8.07281.00054,11.93482-3.35749A10.95555,10.95555,0,0,0,520.68,82.17331a9.11533,9.11533,0,0,0-2.68542-6.71594A17.2867,17.2867,0,0,0,509.83087,71.49314Z"/><path class="cls-2" d="M558.76276,64.89707A9.47422,9.47422,0,0,0,557.012,60.7814a10.27354,10.27354,0,0,0-4.31329-3.50836,14.45092,14.45092,0,0,0-5.84265-1.14752,12.60629,12.60629,0,0,0-5.46033,1.22852,11.24435,11.24435,0,0,0-4.56781,4.34045V44.65915h-9.11365V92.78464h9.11365V73.43357q-.00156-4.591,1.85633-7.06763a6.38073,6.38073,0,0,1,5.44317-2.47655q3.46014.00072,4.69763,2.49322a9.82592,9.82592,0,0,1,.95185,4.65686V92.78464h9.30475v-20.986A52.1402,52.1402,0,0,0,558.76276,64.89707Z"/><path class="cls-2" d="M292.13385,90.32767a5.29266,5.29266,0,0,1-.54431-2.49018q-.06336-2.42478-.06336-4.12719V67.32938q0-6.45311-4.46423-8.77954a21.77686,21.77686,0,0,0-10.2113-2.32625q-8.83164,0-12.46051,4.71785a13.8739,13.8739,0,0,0-2.56867,7.69841h8.7926a6.84855,6.84855,0,0,1,1.29694-3.27594q1.36129-1.63806,4.63477-1.638a9.329,9.329,0,0,1,4.424.83509,3.15789,3.15789,0,0,1,1.50714,3.03045,2.80231,2.80231,0,0,1-1.965,2.65369,14.13074,14.13074,0,0,1-3.63971.819l-3.12451.39288a21.8995,21.8995,0,0,0-8.0531,2.29346q-4.99246,2.94855-4.99243,9.5332-.00027,5.078,3.10339,7.84584a11.36916,11.36916,0,0,0,7.86347,2.76892,12.97409,12.97409,0,0,0,6.68982-1.73657,18.93625,18.93625,0,0,0,4.37469-3.57081q.09549,1.2129.25549,2.16217a10.56453,10.56453,0,0,0,.5755,2.03144h9.9115V91.4083A3.27544,3.27544,0,0,1,292.13385,90.32767Zm-9.68909-11.43378q-.09685,4.68411-2.61346,6.45441a9.36893,9.36893,0,0,1-5.50354,1.7688,4.92182,4.92182,0,0,1-3.198-1.06453,4.19476,4.19476,0,0,1-1.31506-3.45709,4.2858,4.2858,0,0,1,2.15313-3.96319,13.39673,13.39673,0,0,1,4.18854-1.27777l2.07471-.39344a14.61943,14.61943,0,0,0,2.4469-.63884,9.99539,9.99539,0,0,0,1.76678-.90053Z"/><path class="cls-2" d="M251.95575,60.7814a10.27959,10.27959,0,0,0-4.31433-3.50836h.00006a14.44681,14.44681,0,0,0-5.84216-1.14752,12.60576,12.60576,0,0,0-5.46027,1.22852,11.25141,11.25141,0,0,0-4.56842,4.34045V44.65915h-9.11255V92.78464h9.11255V73.43357q-.00082-4.591,1.85632-7.06763a6.382,6.382,0,0,1,5.44373-2.47655q3.4593.00072,4.69763,2.49322a9.83227,9.83227,0,0,1,.95233,4.65686V92.78464h9.30426v-20.986a52.14826,52.14826,0,0,0-.31848-6.90155A9.47464,9.47464,0,0,0,251.95575,60.7814Z"/><path class="cls-2" d="M419.62646,82.46469l-8.79162-37.96911H396.1499V92.78464H405.554V60.12192q-.00055-1.40835-.033-3.94757-.033-2.53848-.033-3.91492L414.5744,92.7847h9.80817L433.535,52.25943q.00055,1.37714-.03192,3.91492-.033,2.53949-.033,3.94757V92.78464h9.40406V44.49558h-14.5221Z"/><path class="cls-2" d="M359.355,71.4332q-8.16879-1.83444-9.51507-2.58826a2.44511,2.44511,0,0,1-1.3462-2.32568,2.7477,2.7477,0,0,1,1.26575-2.22809,7.25267,7.25267,0,0,1,4.24884-.94983q3.62265.00073,5.13031,1.90009a5.59612,5.59612,0,0,1,.993,2.84991h9.11365q-.60978-6.55124-4.72687-9.22174a19.26881,19.26881,0,0,0-10.654-2.6698q-6.89-.00009-10.68713,3.55414a11.24587,11.24587,0,0,0-3.79718,8.5014,8.27059,8.27059,0,0,0,2.43084,6.42115q2.42977,2.26125,8.37,3.76751,8.25174,1.99915,9.53314,2.81714a2.66436,2.66436,0,0,1,1.2818,2.3916,2.62531,2.62531,0,0,1-1.59076,2.457,9.43608,9.43608,0,0,1-4.28918.819q-4.59352.001-6.29737-1.86737a6.31065,6.31065,0,0,1-1.25268-3.53759h-9.2403a11.67959,11.67959,0,0,0,3.92493,9.05822q3.924,3.55371,12.15814,3.55371,8.07276.00047,11.93488-3.35748a10.95521,10.95521,0,0,0,3.86053-8.66486,9.11519,9.11519,0,0,0-2.68536-6.716A17.2874,17.2874,0,0,0,359.355,71.4332Z"/><path class="cls-2" d="M481.01056,63.08145a13.89673,13.89673,0,0,0-5.78833-5.28271,18.05787,18.05787,0,0,0-7.877-1.67328,15.62428,15.62428,0,0,0-11.978,4.95123q-4.61445,4.9509-4.61444,14.23029-.00147,9.903,5.11145,14.29626A17.564,17.564,0,0,0,467.66241,93.996q8.10087.001,12.60169-5.20874a11.924,11.924,0,0,0,3.24707-6.45337h-8.94159a7.793,7.793,0,0,1-1.80249,2.457,7.11,7.11,0,0,1-4.863,1.638,8.47829,8.47829,0,0,1-4.829-1.3432q-3.29883-2.16219-3.50341-7.535h24.39691a48.6732,48.6732,0,0,0-.28913-7.08722A18.24566,18.24566,0,0,0,481.01056,63.08145ZM459.78729,71.3917a10.00241,10.00241,0,0,1,2.33338-5.52723h-.00006a6.70564,6.70564,0,0,1,5.22747-2.04046,7.38846,7.38846,0,0,1,5.19464,1.92523A8.02526,8.02526,0,0,1,474.876,71.3917Z"/><path class="cls-2" d="M315.68152,55.9288q-8.9848.00054-13.39771,5.66309a21.1376,21.1376,0,0,0-4.4129,13.38714,20.998,20.998,0,0,0,4.413,13.437q4.41192,5.58,13.3977,5.58,8.9848.001,13.39771-5.58a21.00279,21.00279,0,0,0,4.41192-13.437,21.14277,21.14277,0,0,0-4.41192-13.38715Q324.66578,55.92881,315.68152,55.9288Zm6.1073,27.32673a7.94536,7.94536,0,0,1-12.295,0q-2.15817-2.9112-2.15814-8.27649t2.15814-8.25989a7.97425,7.97425,0,0,1,12.295,0q2.14215,2.89472,2.14209,8.25989Q323.93036,80.3443,321.78882,83.25553Z"/><path class="cls-2" d="M41.09014,116.12642c-.04135.00517-.07885.01953-.11923.02723.061-.01165.12134-.02549.184-.03111C41.13333,116.12448,41.11163,116.12373,41.09014,116.12642Z"/><path class="cls-2" d="M39.44169,118.24331l0,.00136a4.13649,4.13649,0,0,0,.05137.634,4.13419,4.13419,0,0,1-.05132-.634Z"/><path class="cls-2" d="M41.53527,120.515a2.42974,2.42974,0,0,1-1.04011-.17658A2.42965,2.42965,0,0,0,41.53527,120.515Z"/><path class="cls-2" d="M41.57766,116.12873a2.19876,2.19876,0,0,1,.40741.05653,2.20308,2.20308,0,0,0-.40751-.05658,1.89358,1.89358,0,0,0-.33882-.01116,1.89508,1.89508,0,0,1,.33887.01118Z"/><path class="cls-2" d="M79.39671,120.28055l0,.00092a2.9054,2.9054,0,0,0,.03765.473,2.90865,2.90865,0,0,1-.03763-.473Z"/><path class="cls-2" d="M79.677,121.42647a2.42,2.42,0,0,0,2.14333.90062,2.01841,2.01841,0,0,0,.22218.00957,2.01805,2.01805,0,0,1-.22216-.00957A2.42021,2.42021,0,0,1,79.677,121.42647Z"/><path class="cls-2" d="M83.75588,119.93527c-.00156-.02542-.00954-.04861-.012-.07373a1.97528,1.97528,0,0,1,.01158.32324A1.99158,1.99158,0,0,0,83.75588,119.93527Z"/><path class="cls-2" d="M81.34805,118.07164c-.01938.0012-.037.00751-.05621.00922.04583-.00405.0921-.00633.13842-.0083C81.40285,118.07319,81.37544,118.07,81.34805,118.07164Z"/><path class="cls-2" d="M24.35723,39.44073a2.18266,2.18266,0,0,1-.37878-.15322A2.18266,2.18266,0,0,0,24.35723,39.44073Z"/><path class="cls-2" d="M25.62446,39.58486c.04709-.004.09033-.01829.1363-.02547-.05474.00857-.108.02236-.164.02624Z"/><path class="cls-2" d="M91.37567,120.87336c.01565-.22175.03737-.442.03737-.66775A5.6033,5.6033,0,0,1,91.37567,120.87336Z"/><path class="cls-2" d="M67.35275,41.80689c-.00537-.04652-.02092-.08884-.02937-.13419.00962.05159.025.10129.03056.154Z"/><path class="cls-2" d="M43.67877,118.41241c.001-.02284-.00084-.0451-.00059-.06779-.00033.03029-.001.06051-.00256.09053Z"/><path class="cls-2" d="M65.15,40.05936l-.0011,0q-.02586-.00022-.05176.00017c-.06314.001-.12243.015-.18406.0215a2.05053,2.05053,0,0,1,.23582-.02162Z"/><path class="cls-2" d="M66.63584,43.86212a2.75425,2.75425,0,0,1-1.00952.47841A2.75377,2.75377,0,0,0,66.63584,43.86212Z"/><path class="cls-2" d="M66.63584,43.86212a1.82838,1.82838,0,0,0,.44369-.50387A1.828,1.828,0,0,1,66.63584,43.86212Z"/><path class="cls-2" d="M67.318,42.69635a1.94082,1.94082,0,0,1-.23846.6619A1.94105,1.94105,0,0,0,67.318,42.69635Z"/><path class="cls-2" d="M31.44461,78.12741v0a2.12875,2.12875,0,0,0,.84387,1.81551A2.12879,2.12879,0,0,1,31.44461,78.12741Z"/><path class="cls-2" d="M107.18624,40.64119a4.2356,4.2356,0,0,0,.11532-.41782,4.41553,4.41553,0,0,0,.00716-.48409,4.41517,4.41517,0,0,1-.00716.48407A4.23675,4.23675,0,0,1,107.18624,40.64119Z"/><path class="cls-2" d="M105.51038,37.80667c-.02908-.004-.05778-.00467-.08673-.00755.04483.00444.08949.00745.13456.01468Z"/><path class="cls-2" d="M121.76806,112.59233h0a1.82029,1.82029,0,0,0-.34528-.01014l-.00977.00164a1.82354,1.82354,0,0,1,.355.00852Z"/><path class="cls-2" d="M122.01959,116.96278c.02324-.00134.04563-.00539.06866-.00743-.0254.00224-.05037.00609-.076.00746Z"/><path class="cls-2" d="M111.27606,77.65241c.00231.04095.01384.07874.01879.11888-.00714-.05795-.01695-.11526-.01842-.17435C111.2769,77.61545,111.275,77.63392,111.27606,77.65241Z"/><path class="cls-2" d="M124.07908,114.65184c-.00142-.02465-.00567-.04836-.00788-.07276.00244.02706.00649.05368.00793.081Z"/><path class="cls-2" d="M113.1943,79.36668l.00065,0a1.79953,1.79953,0,0,0,.26621.025c.016.0003.03086-.0037.04677-.00383a1.79328,1.79328,0,0,1-.313-.02117Z"/><path class="cls-2" d="M115.292,77.62937l-.0001.00107.00013-.001h0q.01458-.13133.017-.25451Q115.30651,77.49814,115.292,77.62937Z"/><path class="cls-2" d="M142.81571,109.89682a1.92667,1.92667,0,0,0-.16391-.54443h0c-.47908-1.21781-1.49935-1.44307-2.75647-1.05778-2.53332.77643-5.11542,1.39946-7.63134,2.22534a1.77832,1.77832,0,0,1-1.60631.001,9.86543,9.86543,0,0,0-6.93962-5.39107,2.7,2.7,0,0,1-.66093-1.67571A82.73366,82.73366,0,0,0,119.028,87.442a2.66787,2.66787,0,0,1-.16766-1.96638,9.8456,9.8456,0,0,0,4.22135-7.10686,4.23343,4.23343,0,0,1,2.709-1.27029c5.13279-1.01126,10.17749-2.39968,15.18389-3.9165,1.273-.38564,2.15126-1.18013,1.74437-2.60307-.41129-1.43857-1.55539-1.6113-2.85174-1.22536-.63322.18853-1.26771.37287-1.89991.56456-4.657,1.41183-9.387,2.53769-14.13408,3.5974a1.82562,1.82562,0,0,1-1.55355-.13434A9.7766,9.7766,0,0,0,112.176,67.59527a1.76416,1.76416,0,0,1-.73217-1.08672,109.56958,109.56958,0,0,1-3.29627-15.30414,2.38644,2.38644,0,0,1,.37192-1.94592,9.85583,9.85583,0,0,0,6.60217-8.42511l25.9011-6.66213c1.30682-.40031,2.07082-1.22683,1.68262-2.63821-.38569-1.40261-1.55149-1.37831-2.70694-1.20315a6.36281,6.36281,0,0,0-.84581.25814,226.7238,226.7238,0,0,1-23.20917,5.50909,2.59079,2.59079,0,0,1-1.59084-.04513,9.88753,9.88753,0,0,0-5.99622-5.45151c-.063-.0205-.12847-.03521-.192-.05447.076-.50353.672-4.45.88065-5.80442a69.13372,69.13372,0,0,1,4.68519-17.72043c.5495-1.2525.53852-2.32352-.81121-2.97965-1.39946-.68038-2.21758.09888-2.791,1.29335-.19127.39829-.36614.80473-.54011,1.21105-3.06294,7.152-4.26427,14.6388-5.78544,22.33453a2.3204,2.3204,0,0,1-.65913,1.48849,9.85674,9.85674,0,0,0-7.527,8.03647,1.58446,1.58446,0,0,1-1.45239.702c-4.789.30051-9.57323.675-14.35917,1.02288l-2.21848.01812a3.00931,3.00931,0,0,1-3.02526-.82481,9.87346,9.87346,0,0,0-6.76131-6.641,2.016,2.016,0,0,1-.34031-1.72795c.37388-2.32428.64522-4.66661,1.07544-6.97983a74.22371,74.22371,0,0,1,5.1972-17.05471c.59611-1.32108.36869-2.319-.9344-2.93-1.29983-.60936-2.09025.13854-2.65173,1.22616-.2358.45671-.42423.93824-.62621,1.41188A77.8171,77.8171,0,0,0,63.62377,30.737a3.05743,3.05743,0,0,1-.61632,1.80806A9.872,9.872,0,0,0,55.784,39.0989c-1.61261.89869-3.7412.40743-5.734.37352-.36877-.00622-.73709-.04936-1.10519-.08054a1.93261,1.93261,0,1,0-.28452,3.8456c1.91337.14341,3.82269.34775,5.7375.46429a1.75793,1.75793,0,0,1,1.08553.35358,9.858,9.858,0,0,0,8.36388,7.84123,1.74615,1.74615,0,0,1,.52664,1.18219,86.30626,86.30626,0,0,0,3.476,15.24994A1.68891,1.68891,0,0,1,67.133,70.607q-.04277.02226-.08668.04207a11.21248,11.21248,0,0,0-4.89642,6.84746c-.30314,1.326-.88223,1.605-2.11761,1.54871-5.01569-.22869-10.01981-.57415-15.0151-1.08409a2.05128,2.05128,0,0,1-1.75307-.84613,9.83967,9.83967,0,0,0-10.632-8.97762q-.08632.00731-.17251.0161c-.621-.28845-.887-.856-1.13-1.70853A112.15707,112.15707,0,0,1,28.07,51.36151c-.24134-1.71-.5202-3.33546.26693-4.49894a9.55857,9.55857,0,0,0,5.4281-4.44416,28.2621,28.2621,0,0,1,5.95015-.167c1.18617.044,2.05054-.35995,2.26911-1.55134.24711-1.3464-.57074-2.08811-1.78991-2.34158a20.57723,20.57723,0,0,0-3.50952-.4703c-.89048-.02838-1.44572-.24982-1.75388-.86663a9.42636,9.42636,0,0,0-.84156-3.19867,8.95236,8.95236,0,0,0-5.02288-5.06224,1.56338,1.56338,0,0,1-1.09529-1.9206q.01449-.053.03267-.10482a85.31,85.31,0,0,1,2.18779-10.12979,78.21062,78.21062,0,0,1,3.55424-9.95829A1.82468,1.82468,0,0,0,32.87,4.04571a1.79891,1.79891,0,0,0-2.61087.85379,15.87461,15.87461,0,0,0-1.03047,2.19521,83.60577,83.60577,0,0,0-5.22612,19.3371c-.17188,1.092-.45179,1.60946-1.58995,1.90264a7.98239,7.98239,0,0,0-5.19091,3.85713c-.8315,1.53826-1.77976,1.36643-3.06652.94354-2.86924-.943-5.74685-1.86541-8.64729-2.706-1.1485-.33278-2.45706-.5161-2.93566,1.04371-.46854,1.52686.3719,2.32955,1.77106,2.75322,3.24058.98123,6.45508,2.05384,9.71863,2.95007A1.75169,1.75169,0,0,1,15.612,38.866a9.21772,9.21772,0,0,0,5.17031,7.20956,9.4489,9.4489,0,0,0,1.95127.8344,2.74378,2.74378,0,0,1,1.14631,2.41412,80.51654,80.51654,0,0,0,3.34846,17.07668,6.19772,6.19772,0,0,1,.41842,3.62307,9.88451,9.88451,0,0,0-3.29131,4.205,2.09527,2.09527,0,0,1-1.49813.0534A175.45048,175.45048,0,0,1,5.84111,69.5317c-1.36571-.46126-2.71348-.73378-3.26263.992-.53235,1.67315.62059,2.30175,2.029,2.78435a168.65065,168.65065,0,0,0,17.00841,4.77262c.73205.16786,1.55129.12942,2.05514.843a9.85545,9.85545,0,0,0,9.79266,8.863c.267,0,.52923-.01913.79089-.04005a1.36889,1.36889,0,0,1,.90619.99711,84.09933,84.09933,0,0,1,4.29034,18.44736,2.08456,2.08456,0,0,1-.26989,1.61893,9.8721,9.8721,0,0,0-6.71109,5.602c-1.40688.78113-3.16358.19808-4.90355-.14306-1.08294-.21234-2.14981-.50539-3.23129-.72605A142.59459,142.59459,0,0,1,5.39556,108.337c-1.22564-.43214-2.25115-.2847-2.76639.95094-.5534,1.32747.074,2.27322,1.34862,2.80818.40681.17077.84063.2767,1.25995.41882a165.40536,165.40536,0,0,0,24.61672,6.19332,2.81277,2.81277,0,0,1,1.86526.91049,9.85585,9.85585,0,0,0,6.40954,7.99747c.63819.75531.5951,1.6978.29844,2.96317a114.604,114.604,0,0,1-3.34665,12.795c-.416,1.15632-.44212,2.42316,1.05027,2.93938,1.58461.54816,2.29253-.46928,2.77841-1.75145.13007-.34322.28351-.67958.38676-1.03063a92.72239,92.72239,0,0,0,3.26-13.95731,2.53425,2.53425,0,0,1,.54577-1.50668,9.85982,9.85982,0,0,0,7.52824-6.11117,1.93741,1.93741,0,0,1,1.69161-.48323,171.40071,171.40071,0,0,0,18.3676.72119,1.86964,1.86964,0,0,1,1.34349.39809,9.867,9.867,0,0,0,6.28338,6.89149,1.55547,1.55547,0,0,1,.12805,1.30481,104.89825,104.89825,0,0,1-3.148,12.16654c-.478,1.34325-.84961,2.68635.86392,3.32349,1.6571.61624,2.35278-.47018,2.84563-1.88636a79.44143,79.44143,0,0,0,3.24168-12.58327,2.933,2.933,0,0,1,.87585-1.89558,9.80091,9.80091,0,0,0,4.71867-2.12882,6.39192,6.39192,0,0,0,.88082-.8383,9.81828,9.81828,0,0,0,2.46095-4.64891c.02955-.13593.04411-.27683.06824-.41467l5.55854-1.152a1.81923,1.81923,0,0,0,1.571-2.03747l-.00529-.03774a1.6806,1.6806,0,0,0-1.89829-1.71006c-1.328.03377-2.65789.21456-3.97191.27-1.09341.04612-1.253.11515-1.64561-.23033a9.86949,9.86949,0,0,0-6.70224-6.26469,1.473,1.473,0,0,1-.47446-1.07884,78.83684,78.83684,0,0,0-2.79317-16.05186c-.24089-.81211.09557-1.17954.725-1.59987a12.42859,12.42859,0,0,0,5.53247-8.19036,1.40493,1.40493,0,0,1,1.42513-1.38442q.05725.00083.11431.00631,6.83967-.52455,13.65754-1.31566a2.56045,2.56045,0,0,1,2.023.39389,9.788,9.788,0,0,0,9.99779,5.65056,2.17647,2.17647,0,0,1,.86865,1.26956,108.41118,108.41118,0,0,1,4.01341,15.80923,1.22632,1.22632,0,0,1-.21291,1.11209,9.86146,9.86146,0,0,0-7.02891,8.46366c-1.0743,1.28507-2.80543,1.48648-4.68485,1.68985-.661.07149-1.32715.11813-1.98017.23562-1.31315.23619-2.2271.87376-1.99918,2.37836.21724,1.43434,1.28508,1.69951,2.48531,1.55374,1.82784-.22193,3.65466-.48109,5.46307-.82322a2.26974,2.26974,0,0,1,1.60327.10614,9.88136,9.88136,0,0,0,6.03336,5.24838,2.91048,2.91048,0,0,1,.24231,2.4335,96.947,96.947,0,0,1-4.10637,17.13568,1.80878,1.80878,0,0,0,1.10918,2.517,1.86653,1.86653,0,0,0,2.64547-1.21666c.11585-.27.2396-.5382.33134-.81654a90.00953,90.00953,0,0,0,4.00057-17.84264,2.903,2.903,0,0,1,.83047-2.03218,9.84834,9.84834,0,0,0,7.6345-9.06173,2.17993,2.17993,0,0,1,1.4916-.94752c2.7088-.702,5.4021-1.46946,8.07987-2.282A1.92678,1.92678,0,0,0,142.81571,109.89682ZM25.20711,43.13791q-.02382.0001-.04766,0a5.64483,5.64483,0,1,1,5.66437-5.62523q.00007.01655,0,.03307A5.60446,5.60446,0,0,1,25.20711,43.13791ZM91.413,120.20561c0,.22578-.02172.446-.03737.66775A5.6033,5.6033,0,0,0,91.413,120.20561Zm13.92083-85.91737a5.6548,5.6548,0,1,1-5.65719,5.65242A5.65411,5.65411,0,0,1,105.33387,34.28824ZM65.39741,47.85814a5.67776,5.67776,0,0,1-5.82127-5.53053q-.00309-.12624-.00052-.25255a5.6776,5.6776,0,1,1,5.82179,5.78308ZM33.5787,83.71658a5.76358,5.76358,0,0,1-5.68865-5.61211,5.63185,5.63185,0,0,1,5.50717-5.74419l.047-.00039a5.58931,5.58931,0,0,1,5.61567,5.56285A5.699,5.699,0,0,1,33.5787,83.71658ZM41.429,124.005a5.66952,5.66952,0,0,1-5.562-5.69956,5.73446,5.73446,0,0,1,5.69134-5.60177h0A5.6514,5.6514,0,0,1,41.429,124.005Zm30.64576-6.34642s-3.293.39193-4.40757.45264c-5.00678.27265-10.01368-.29166-15.02366-.48822a1.719,1.719,0,0,1-1.41936-.52664,9.85365,9.85365,0,0,0-7.2986-8.24547,2.08788,2.08788,0,0,1-.55462-1.42021,76.19755,76.19755,0,0,0-4.24518-19.32157A2.71261,2.71261,0,0,1,38.977,86.093a9.9078,9.9078,0,0,0,3.23552-3.66c1.24121-.74675,2.839-.59574,4.59511-.38586,4.38457.524,8.81493.68958,13.23068.91521,1.10462.05641,1.68086.30428,2.00425,1.47361,1.71969,6.21856,6.73037,9.9464,13.07283,9.5963,1.55778-.086,1.9593.38763,2.2897,1.753a92.1831,92.1831,0,0,1,2.27369,13.45525c.05869.65285.02283,1.06687-.27556,1.3717A9.86371,9.86371,0,0,0,72.07477,117.65859Zm9.51037-3.00036.04493-.0005a5.58219,5.58219,0,0,1,5.62113,5.543,5.78218,5.78218,0,0,1-5.66551,5.65028,5.87277,5.87277,0,0,1-5.69558-5.6473A5.6618,5.6618,0,0,1,81.58514,114.65823Zm1.7775-32.89371a8.63874,8.63874,0,0,1-8.966,8.29855q-.06381.00065-.12762.00033a8.75131,8.75131,0,0,1-8.70922-8.79319q-.00146-.09393-.0009-.18791A8.86,8.86,0,0,1,74.471,72.27468q.1672-.00266.33442.00114a8.76076,8.76076,0,0,1,8.56142,8.95565Q83.37294,81.498,83.36264,81.76452Zm20.12048-5.09328h0a1.28059,1.28059,0,0,1-1.03675.47654c-4.475.413-8.94455.88656-13.41186,1.37642-1.24052.13606-1.8478-.09519-2.32662-1.50439a12.57454,12.57454,0,0,0-12.91268-8.69642,2.02579,2.02579,0,0,1-2.38711-1.58406q-.01755-.08678-.02745-.17485a130.529,130.529,0,0,1-3.03891-13.31084,2.07676,2.07676,0,0,1,.34036-1.934,9.87174,9.87174,0,0,0,5.93141-6.54954,1.68589,1.68589,0,0,1,1.62745-.74762,173.43461,173.43461,0,0,0,17.69424-.9671,1.88162,1.88162,0,0,1,2.27928.618,9.86443,9.86443,0,0,0,7.45449,5.978,1.89631,1.89631,0,0,1,.54689,1.3467,80.45552,80.45552,0,0,0,3.48056,16.57773,2.24239,2.24239,0,0,1,.03469,1.68A9.838,9.838,0,0,0,103.48312,76.67124Zm9.76607,6.29024a5.59028,5.59028,0,0,1-5.54931-5.631q-.00261-.13271.00126-.26537a5.44922,5.44922,0,0,1,5.6059-5.28792q.117-.00236.234.00029a5.46471,5.46471,0,0,1,5.33934,5.58727q0,.0237-.00012.04741A5.59033,5.59033,0,0,1,113.24919,82.96148Zm14.17365,31.88757a5.66886,5.66886,0,1,1,.0004-.07733Q127.42331,114.81036,127.42284,114.84905Z"/><path class="cls-2" d="M115.309,77.37489a2.16429,2.16429,0,0,0-.087-.67306,1.937,1.937,0,0,0-.27178-.55635,2.3517,2.3517,0,0,0-.26989-.31808,3.79674,3.79674,0,0,0-.71493-.54185c-.1358-.08222-.279-.16122-.42825-.23818q-.11195-.0577-.22815-.11406c-.96223.47239-1.92353.97808-2.00106,2.26283l-.0001.00072a1.81892,1.81892,0,0,0-.03092.32317c-.00044.0258-.00116.05129-.00052.07691.00147.05909.01128.1164.01842.17435a1.80839,1.80839,0,0,0,.03126.19787c.01329.05579.03243.10939.05081.16337.01936.05683.03785.11336.06263.16778s.05494.10593.08486.15757c.0287.0495.05665.09875.08983.14532.03387.04756.07243.0914.11075.13556.03852.04438.07649.08844.11928.129.0411.039.0863.07373.13111.10889a1.78746,1.78746,0,0,0,.14442.10611c.05.03178.10378.05827.15728.08526.051.02572.101.05211.15493.07313a1.842,1.842,0,0,0,.19142.05845c.05646.01516.11192.03282.1703.04251.02524.0042.05061.007.076.01017a1.81457,1.81457,0,0,0,.32458.01436h.00062a1.79328,1.79328,0,0,0,.313.02117,1.76546,1.76546,0,0,0,.19363-.01578c.05474-.00636.10993-.01058.16333-.02184a1.76273,1.76273,0,0,0,.17248-.04995c.0548-.01747.11031-.03312.16292-.05566.05221-.02239.10061-.05084.15034-.078.05146-.02806.10377-.05462.1522-.0875.04727-.03208.08973-.06973.13377-.10616s.08923-.07154.12974-.11214c.04122-.04128.07671-.08747.11386-.13277.036-.04384.07316-.08643.105-.13377s.05728-.09845.08459-.149a1.76814,1.76814,0,0,0,.08156-.161c.02082-.05007.03518-.10307.05159-.15556a1.707,1.707,0,0,0,.089-.49838l.0001-.00107Q115.30661,77.49806,115.309,77.37489Z"/><path class="cls-2" d="M112.73866,79.3348c.01819.0036.03678.0043.05507.00735-.05838-.00969-.11384-.02735-.1703-.04251C112.66252,79.31012,112.69838,79.32682,112.73866,79.3348Z"/><path class="cls-2" d="M115.26706,77.89561a1.79962,1.79962,0,0,0,.02487-.26517,1.7968,1.7968,0,0,1-.03727.3102C115.25771,77.92511,115.2644,77.91129,115.26706,77.89561Z"/><path class="cls-2" d="M115.222,76.70183a2.16429,2.16429,0,0,1,.087.67306A2.16429,2.16429,0,0,0,115.222,76.70183Z"/><path class="cls-2" d="M113.309,74.93331h0c-.96223.47239-1.92359.978-2.00107,2.26281l-.00007.00074.0001-.00072C111.3855,75.91139,112.3468,75.4057,113.309,74.93331Z"/><path class="cls-2" d="M43.63317,117.87745l-.011-.05162a2.18043,2.18043,0,0,0-.11054-.34434l-.02176-.05052a2.18656,2.18656,0,0,0-.16948-.311c-.01006-.01535-.02047-.03011-.03091-.04517a2.20417,2.20417,0,0,0-.2233-.27394c-.0117-.01218-.02388-.02351-.03586-.03542a2.20264,2.20264,0,0,0-.27377-.23209l-.03536-.02353a2.18827,2.18827,0,0,0-.32143-.18324l-.02964-.01228a2.17776,2.17776,0,0,0-.36576-.12524l-.01929-.00378a2.19876,2.19876,0,0,0-.40741-.05653l-.00005,0a1.89508,1.89508,0,0,0-.33887-.01118c-.02815.00127-.056.00251-.08387.005-.06262.00562-.123.01946-.184.03111a1.8891,1.8891,0,0,0-.2019.04612c-.05743.01772-.11235.04086-.16751.06379-.05748.02388-.11449.04729-.16913.07656-.05522.0296-.1072.06417-.15914.099-.0493.03305-.09813.06568-.14413.10318-.04756.03874-.09122.08185-.13488.125-.04326.04284-.08585.08541-.125.13235-.03812.04577-.07176.0952-.10558.1446-.035.05116-.06948.10188-.0995.15665-.0299.05459-.05447.11244-.079.17037-.02308.05434-.04647.1079-.06456.16493a1.91685,1.91685,0,0,0-.04845.20331c-.01208.06031-.02634.11988-.03251.18183-.00281.02825-.0043.05658-.00586.08494a1.88975,1.88975,0,0,0,.008.337l.00007.00136a4.13419,4.13419,0,0,0,.05132.634,2.39174,2.39174,0,0,0,.25456.77361,1.61072,1.61072,0,0,0,.29643.38763,1.51208,1.51208,0,0,0,.18838.15283,1.61094,1.61094,0,0,0,.26271.14572,2.42974,2.42974,0,0,0,1.04011.17658l0,0a2.20021,2.20021,0,0,0,.40873-.04868l.019-.00333a2.17351,2.17351,0,0,0,.36882-.11838l.029-.01138a2.18291,2.18291,0,0,0,.32611-.17765l.03434-.02192a2.1955,2.1955,0,0,0,.27963-.22792l.03511-.03337a2.20222,2.20222,0,0,0,.23006-.27143l.03012-.0422a2.19306,2.19306,0,0,0,.17695-.31042l.02132-.04692a2.17575,2.17575,0,0,0,.11824-.34528l.01123-.04809a2.18435,2.18435,0,0,0,.05174-.37286c.00154-.03.00223-.06024.00256-.09053.00034-.03238.00017-.06459-.00087-.09664A2.20042,2.20042,0,0,0,43.63317,117.87745Z"/><path class="cls-2" d="M39.44405,117.75727c-.00286.02127-.00231.04274-.00445.06409.00617-.06195.02043-.12152.03251-.18183C39.46413,117.67942,39.44954,117.71639,39.44405,117.75727Z"/><path class="cls-2" d="M43.67731,118.248c.001.032.00121.06426.00087.09664.00025-.02423.00258-.04794.002-.07234Z"/><path class="cls-2" d="M41.53527,120.515h.00005a2.20223,2.20223,0,0,0,.40863-.04871,2.20021,2.20021,0,0,1-.40873.04868Z"/><path class="cls-2" d="M35.25587,76.86251c-.0161-.03511-.02679-.07517-.04468-.10862a1.69,1.69,0,0,0-.12348-.19733,1.85172,1.85172,0,0,0-1.56328-.69594,2.49972,2.49972,0,0,0-.946.14408,1.55085,1.55085,0,0,0-.78635.66679,2.33231,2.33231,0,0,0-.29737.86236,4.05065,4.05065,0,0,0-.05.59356,2.12879,2.12879,0,0,0,.84387,1.81553,1.83443,1.83443,0,0,0,.6565.25024,2.73152,2.73152,0,0,0,.472.044v-.00005a1.904,1.904,0,0,0,1.63212-.65829A1.68351,1.68351,0,0,0,35.179,79.384a2.27283,2.27283,0,0,0,.26249-.80824,3.75582,3.75582,0,0,0,.0411-.58379,3.25658,3.25658,0,0,0-.061-.61075A2.37032,2.37032,0,0,0,35.25587,76.86251Z"/><path class="cls-2" d="M33.417,80.23716v.00005a1.90392,1.90392,0,0,0,1.63212-.65834A1.904,1.904,0,0,1,33.417,80.23716Z"/><path class="cls-2" d="M35.08771,76.55656a1.85152,1.85152,0,0,0-1.56328-.69594A1.85172,1.85172,0,0,1,35.08771,76.55656Z"/><path class="cls-2" d="M35.25587,76.86251a2.37032,2.37032,0,0,1,.16575.51869A2.37032,2.37032,0,0,0,35.25587,76.86251Z"/><path class="cls-2" d="M26.70179,35.90744a1.96314,1.96314,0,0,0-.34871-.16987,2.66451,2.66451,0,0,0-.401-.11381,3.652,3.652,0,0,0-.4454-.06153q-.11626-.00916-.23687-.01235a3.98047,3.98047,0,0,0-.48576.03245,2.44137,2.44137,0,0,0-.81539.24246,1.80114,1.80114,0,0,0-.90458,1.7935,2.04328,2.04328,0,0,0,.33883,1.18686,1.51354,1.51354,0,0,0,.31378.32193,1.74751,1.74751,0,0,0,.26179.16043,2.18266,2.18266,0,0,0,.37878.15322,3.56485,3.56485,0,0,0,.82443.13123,1.95953,1.95953,0,0,0,.36087.01516c.01812-.00074.03628-.00025.05427-.00149.05594-.00388.10922-.01767.164-.02624a1.957,1.957,0,0,0,.2264-.0423c.05887-.01652.11414-.04144.17085-.06326.06132-.02361.12352-.04431.18192-.07378.058-.0293.11118-.06635.16587-.10111.05154-.03281.10437-.0629.15263-.10032.0498-.03862.09378-.08394.1397-.12718s.09329-.08429.13494-.1319c.04-.04565.07323-.097.10891-.14639a1.9221,1.9221,0,0,0,.11081-.16c.0324-.05591.05685-.11689.08376-.17638.02523-.05572.05346-.10917.07353-.16776a1.98574,1.98574,0,0,0,.05524-.22295c.01181-.05437.02871-.10693.03586-.16274.00229-.01784.00284-.03594.00462-.0539a1.95516,1.95516,0,0,0,.00589-.36124,2.3424,2.3424,0,0,0-.01548-.46946A1.46375,1.46375,0,0,0,26.70179,35.90744Z"/><path class="cls-2" d="M27.3988,37.911l.00238-.02765c-.00715.05581-.024.10837-.03586.16274C27.37521,38.0004,27.39206,37.95791,27.3988,37.911Z"/><path class="cls-2" d="M25.26976,35.54988a3.98013,3.98013,0,0,0-.48574.03245,3.98047,3.98047,0,0,1,.48576-.03245Z"/><path class="cls-2" d="M67.32338,41.6727a1.99007,1.99007,0,0,0-.052-.23771c-.01881-.05919-.04659-.11414-.0707-.17094a1.18512,1.18512,0,0,0-.191-.34921c-.03461-.0504-.066-.10263-.10506-.1496-.04123-.0496-.08953-.09261-.13543-.13806-.04513-.04468-.08757-.09143-.1369-.13171-.04806-.03926-.10208-.07107-.15387-.10581a1.95339,1.95339,0,0,0-.16463-.10665,1.9966,1.9966,0,0,0-.18709-.08046c-.05586-.02287-.10924-.04958-.16771-.06745a2.0222,2.0222,0,0,0-.24261-.05059c-.05022-.00875-.09862-.02336-.14989-.0282-.01543-.00147-.03091-.00125-.04634-.00234a1.98934,1.98934,0,0,0-.37016.00539l-.0011.00008a2.05053,2.05053,0,0,0-.23582.02162,2.10578,2.10578,0,0,0-.2099.02452,2.0334,2.0334,0,0,0-.19646.05907c-.065.0205-.13151.03693-.19363.06347-.06322.027-.121.06316-.18081.09607-.05782.03178-.11754.05988-.17186.09683-.05621.03827-.10586.08454-.158.128-.05045.04207-.10328.08086-.14955.12743-.04709.04741-.08652.10166-.12892.1534-.04222.05153-.08714.10021-.12437.1557s-.06553.11655-.09734.17554c-.032.05929-.06714.11617-.09336.17872-.02636.06292-.04271.13046-.06289.19634-.01983.06463-.04346.12728-.057.19447a2.12214,2.12214,0,0,0-.02339.21276,2.04723,2.04723,0,0,0-.0198.23359v0a2.2514,2.2514,0,0,0,.11662.761,1.91544,1.91544,0,0,0,.4913.76353,2.18846,2.18846,0,0,0,.17218.14872,3.23416,3.23416,0,0,0,1.38156.58017q.219-.03657.41889-.08981a2.75425,2.75425,0,0,0,1.00952-.47841,1.828,1.828,0,0,0,.44369-.50387,1.94082,1.94082,0,0,0,.23846-.6619,2.6098,2.6098,0,0,0,.0369-.45248,1.98815,1.98815,0,0,0,.00174-.37222c-.00122-.015-.00112-.03005-.00269-.04491C67.34843,41.774,67.333,41.72429,67.32338,41.6727Z"/><path class="cls-2" d="M65.58577,40.05728l-.01931-.001c.05127.00484.09967.01945.14989.0282C65.67222,40.07683,65.631,40.06205,65.58577,40.05728Z"/><path class="cls-2" d="M63.65369,43.70145a1.91544,1.91544,0,0,1-.4913-.76353A1.91544,1.91544,0,0,0,63.65369,43.70145Z"/><path class="cls-2" d="M63.04577,42.177a2.04723,2.04723,0,0,1,.0198-.23359c-.00591.06091-.01941.11953-.02.18188q-.00025.02591.00018.05176a2.25118,2.25118,0,0,0,.11662.76092,2.2514,2.2514,0,0,1-.11662-.761Z"/><path class="cls-2" d="M105.07593,42.0863a1.75614,1.75614,0,0,0,1.04406-.097,1.5307,1.5307,0,0,0,.32163-.19331,2.11609,2.11609,0,0,0,.58831-.76618,3.35343,3.35343,0,0,0,.15631-.38863,4.23675,4.23675,0,0,0,.11532-.41784,4.41517,4.41517,0,0,0,.00716-.48407,2.6432,2.6432,0,0,0-.15742-.8312,1.5637,1.5637,0,0,0-.72884-.845,2.3097,2.3097,0,0,0-.86363-.24922l-.00062-.0001c-.04507-.00723-.08973-.01024-.13456-.01468-.03978-.004-.07954-.00855-.11908-.01039-.03605-.00167-.07171-.00087-.10752-.00082-.03924.00005-.07853-.00047-.11742.00164-.03613.00194-.07174.00629-.10749.01-.03775.00391-.07555.00719-.1128.013-.03608.00559-.07146.01344-.107.02075-.036.00738-.07207.01419-.1075.02331s-.07028.02053-.10519.03136c-.03432.01066-.06876.02072-.10243.033-.03452.01258-.06807.02726-.10184.04148-.03275.01379-.06567.027-.09768.04229-.03288.01571-.06468.03343-.09671.0507-.03132.01687-.06285.03322-.09332.05153-.03078.01854-.06035.039-.09022.05892s-.06012.03954-.089.06093c-.02843.02105-.05544.04384-.08285.06618-.02833.02308-.05688.04572-.08407.0702-.02609.02346-.05066.04858-.07566.07328-.02614.02584-.05261.05129-.07751.07843-.02383.026-.046.05352-.06863.08063-.02361.02831-.04752.05619-.06976.08568-.02137.02838-.041.05823-.061.0877-.02078.03049-.0419.06053-.06121.09214-.01878.03074-.03561.0629-.053.09468-.01766.0324-.0358.06438-.052.09781s-.03009.06808-.0446.10243c-.01421.03364-.02893.06689-.04157.10143-.01312.036-.02393.07311-.03532.11-.01076.03493-.02214.06945-.03126.10518-.00954.03738-.01657.07585-.02427.11406-.00907.04511-.01946.08969-.02585.13588a2.33432,2.33432,0,0,0-.03884.26937,1.95943,1.95943,0,0,0-.00514.25068,1.64036,1.64036,0,0,0,.08128.44732A2.49169,2.49169,0,0,0,105.07593,42.0863Z"/><path class="cls-2" d="M106.42246,38.06312a2.30933,2.30933,0,0,0-.86363-.24924l-.00062-.00008.00062.0001A2.3097,2.3097,0,0,1,106.42246,38.06312Z"/><path class="cls-2" d="M107.1513,38.90808a2.6432,2.6432,0,0,1,.15742.8312A2.643,2.643,0,0,0,107.1513,38.90808Z"/><path class="cls-2" d="M103.00569,39.58652c-.00589.02928-.01385.05766-.01862.0874l-.00723.04846a2.33464,2.33464,0,0,0-.03884.26939,2.33432,2.33432,0,0,1,.03884-.26937C102.98623,39.67621,102.99662,39.63163,103.00569,39.58652Z"/><path class="cls-2" d="M124.0712,114.57908c-.00425-.04721-.008-.09453-.01526-.1409-.00432-.02763-.01106-.05442-.0164-.08173-.00857-.04383-.01652-.08786-.02771-.13078-.00834-.03206-.0192-.06312-.029-.09463-.01128-.03643-.02164-.07323-.03476-.10884-.01327-.03606-.02913-.07084-.04421-.106-.01272-.0296-.02435-.05969-.03832-.08859-.018-.03728-.03849-.073-.0585-.10912-.01411-.02542-.02716-.05136-.04224-.07616-.02157-.03548-.0455-.06935-.069-.1035-.0164-.02383-.03193-.04828-.04925-.07144-.02376-.03173-.04968-.06173-.0751-.09212-.01981-.02371-.03884-.048-.05964-.07084-.02463-.02707-.05116-.05226-.07711-.07806-.0241-.024-.04753-.0485-.07276-.07137-.0248-.02243-.05126-.04306-.07708-.06438-.0286-.02363-.05668-.04776-.0865-.06995-.0251-.01866-.05166-.03544-.07758-.05306-.03231-.02194-.06414-.0444-.09766-.06463-.02684-.0162-.055-.03034-.08258-.0454-.03421-.01869-.068-.038-.10335-.05492-.03064-.01466-.06257-.027-.094-.04025-.03355-.01414-.06655-.02918-.10094-.04168-.0374-.01359-.076-.02447-.11438-.036-.0298-.009-.059-.01924-.08934-.027-.04488-.01151-.091-.01986-.137-.02853-.02525-.00477-.05-.011-.07555-.01486-.04828-.00735-.09773-.01121-.147-.01538-.025-.00209-.04955-.00579-.07473-.007a2.18138,2.18138,0,0,0-.236.00042h-.00008v0a1.82354,1.82354,0,0,0-.355-.00852,1.78726,1.78726,0,0,0-.253.04244c-.03489.00753-.07154.00935-.10576.01889a1.7898,1.7898,0,0,0-.19713.07572c-.04478.01836-.09217.03108-.13519.05288-.04013.02032-.07522.04855-.11366.07174a1.12435,1.12435,0,0,0-.336.2607c-.03213.03158-.06834.05866-.09813.09261a1.82631,1.82631,0,0,0-.14669.20372c-.01811.02751-.0407.05146-.05735.08-.02622.045-.04349.09554-.06588.14306a1.77642,1.77642,0,0,0-.08212.18127c-.01206.03524-.01648.07391-.02642.11019a1.80284,1.80284,0,0,0-.05589.24429,1.82436,1.82436,0,0,0-.01235.35528c-.0152,1.545.54913,2.48486,2.04878,2.44657a2.21442,2.21442,0,0,0,.23605-.00042c.02564-.00137.05061-.00522.076-.00746.04876-.0043.09754-.0083.14537-.01575.02647-.00415.05221-.01061.07838-.01571.045-.00872.09005-.017.134-.02843.03138-.00817.0618-.01883.09264-.02835.037-.01146.07444-.022.11065-.03534.03573-.01317.07018-.02887.105-.04381.02992-.01282.06031-.02462.08954-.03874.03705-.01789.07261-.03827.10849-.05817.0256-.01419.05174-.02736.07669-.04252.03548-.02159.06933-.04555.1035-.069.0238-.01641.04823-.03186.07136-.04918.03174-.02376.06173-.04968.09215-.0751.0237-.01983.04806-.03886.07089-.05969.02706-.02462.05224-.05114.078-.07708.024-.0241.04851-.04754.07134-.07273.02264-.025.04344-.05172.06494-.07776.02338-.02833.04731-.05608.06928-.08561.019-.02552.03605-.05253.05394-.07892.02165-.03188.04381-.06329.06379-.09637.01655-.0274.031-.05621.0464-.08438.01831-.0336.03727-.0667.05385-.10137.01506-.03146.02778-.06421.04135-.09651.01376-.03273.02842-.06491.04063-.09846.01394-.03834.02519-.078.037-.11739.00867-.02877.01854-.057.026-.08627.01183-.04615.02048-.09351.02933-.14083.00447-.024.01038-.04741.01409-.07169.0076-.04987.01168-.101.0159-.152.00194-.02343.00544-.04644.00661-.0701.002-.04011.00055-.07947.0004-.11915-.00013-.03631.00112-.07291-.00077-.10884C124.07769,114.63276,124.07364,114.60614,124.0712,114.57908Z"/><path class="cls-2" d="M119.72741,114.51666a1.82436,1.82436,0,0,1,.01235-.35528l-.00228.01a1.81793,1.81793,0,0,0-.01012.34529c-.0152,1.545.54911,2.48489,2.04878,2.44657h.00005C120.27654,117.00152,119.71221,116.06163,119.72741,114.51666Z"/><path class="cls-2" d="M121.77619,116.96323a2.18155,2.18155,0,0,0,.23605-.00042,2.21442,2.21442,0,0,1-.23605.00042Z"/><path class="cls-2" d="M124.07948,114.89522l0-.00716c-.00117.02366-.00467.04667-.00661.0701C124.07463,114.937,124.07833,114.91654,124.07948,114.89522Z"/><path class="cls-2" d="M122.01147,112.59188l-.00729,0c.02518.00124.04973.00494.07473.007C122.05627,112.597,122.0343,112.5931,122.01147,112.59188Z"/><path class="cls-2" d="M79.39671,120.28147a2.90865,2.90865,0,0,0,.03763.473,1.83577,1.83577,0,0,0,.24268.672,2.42021,2.42021,0,0,0,2.14335.90062,2.01805,2.01805,0,0,0,.22216.00957,1.65314,1.65314,0,0,0,.40263-.0534,1.42707,1.42707,0,0,0,.501-.244,1.577,1.577,0,0,0,.26651-.25828,1.94546,1.94546,0,0,0,.21341-.32392,2.82576,2.82576,0,0,0,.26186-.7678c.005-.02495.00982-.05.01432-.0753a4.05739,4.05739,0,0,0,.05091-.40611l.00227-.02309a1.97528,1.97528,0,0,0-.01158-.32324,1.94687,1.94687,0,0,0-.03378-.20712c-.01269-.06121-.02544-.12231-.04368-.18141a1.95558,1.95558,0,0,0-.06995-.18468c-.02488-.05879-.0498-.11751-.08-.17332s-.06479-.10765-.1-.16006c-.03581-.05323-.07174-.10628-.11242-.15576-.04025-.049-.08439-.09346-.12914-.13836-.04446-.04466-.089-.089-.13762-.12934-.04945-.041-.10218-.077-.15558-.11314-.052-.03522-.104-.07013-.15946-.10042-.05586-.03052-.11419-.05559-.17328-.08076a1.95642,1.95642,0,0,0-.18418-.0705c-.05917-.01844-.12-.03143-.1815-.04441a2.12187,2.12187,0,0,0-.53007-.04719,1.75082,1.75082,0,0,0-.2229-.00251c-.04632.002-.09259.00425-.13842.0083a2.03866,2.03866,0,0,0-.2215.03631c-.063.0126-.12674.02308-.18772.0413a2.047,2.047,0,0,0-.19435.07383c-.06177.02549-.12439.0491-.18316.08021-.05833.03089-.11178.06824-.16675.1044-.05675.03729-.11448.07315-.16726.11574-.05159.0416-.09718.089-.14462.13526s-.09625.0915-.13924.14234c-.04361.05156-.08033.108-.1189.16383-.03745.0542-.07629.10728-.10862.16515s-.05713.11933-.08392.18046a2.05038,2.05038,0,0,0-.07852.19358c-.01941.06026-.03129.1232-.04528.18588a2.074,2.074,0,0,0-.04142.22138c-.00509.04572-.00837.09192-.01138.13819a2.09149,2.09149,0,0,0-.00249.22183Z"/><path class="cls-2" d="M83.75544,120.18481v0l-.00227.02309Z"/><path class="cls-2" d="M82.44516,122.28326a1.65314,1.65314,0,0,1-.40263.0534A1.65294,1.65294,0,0,0,82.44516,122.28326Z"/><path class="cls-2" d="M79.40012,119.97639c-.00231.02739.0003.0549-.00092.08233.003-.04627.00629-.09247.01138-.13819C79.40844,119.93966,79.40176,119.95708,79.40012,119.97639Z"/><path class="cls-2" d="M79.39671,120.28055a2.09149,2.09149,0,0,1,.00249-.22183A1.75408,1.75408,0,0,0,79.39671,120.28055Z"/><path class="cls-2" d="M81.90267,118.07552a1.98588,1.98588,0,0,0-.24951-.00045,1.9765,1.9765,0,0,1,.32324.01273C81.95128,118.08521,81.92809,118.07716,81.90267,118.07552Z"/></svg>
