<!--
  ~ Copyright 2021 Chaos Mesh Authors.
  ~
  ~ Licensed under the Apache License, Version 2.0 (the "License");
  ~ you may not use this file except in compliance with the License.
  ~ You may obtain a copy of the License at
  ~
  ~ http://www.apache.org/licenses/LICENSE-2.0
  ~
  ~ Unless required by applicable law or agreed to in writing, software
  ~ distributed under the License is distributed on an "AS IS" BASIS,
  ~ WITHOUT WARRANTIES OR CONDITIONS OF ANY KIND, either express or implied.
  ~ See the License for the specific language governing permissions and
  ~ limitations under the License.
  ~
-->
<svg xmlns="http://www.w3.org/2000/svg" viewBox="0 0 776.03 198.4"><defs><style>.cls-1{fill:#172d72;}.cls-2{fill:#f25c7c;}.cls-3{fill:#10a6fa;}</style></defs><g id="图层_2" data-name="图层 2"><g id="Layer_2" data-name="Layer 2"><path class="cls-1" d="M31.64,37.81a9.06,9.06,0,0,1,3.14.57A107.48,107.48,0,0,1,43.56,4a2.74,2.74,0,0,0-4.91-2.44,110,110,0,0,0-9.36,36.61A9.13,9.13,0,0,1,31.64,37.81Z"/><path class="cls-1" d="M40.73,46.9a9,9,0,0,1-1.32,4.69c3.93.7,8.1,1.36,12.51,1.94l.37,0a2.75,2.75,0,0,0,.36-5.47c-4.21-.55-8.18-1.19-12-1.86C40.71,46.45,40.73,46.67,40.73,46.9Z"/><path class="cls-1" d="M1.77,41.93a190.22,190.22,0,0,0,20.87,6.15,9.23,9.23,0,0,1-.08-1.18,9.06,9.06,0,0,1,1.05-4.25A188.23,188.23,0,0,1,3.72,36.8a2.74,2.74,0,0,0-1.95,5.13Z"/><path class="cls-1" d="M194.84,92.7A2.75,2.75,0,0,0,191.36,91a267.17,267.17,0,0,1-35.69,8.46c-4.71-12.53-9.09-26.27-9.91-47.08C174.52,48.21,192.91,42,193.13,42a2.74,2.74,0,0,0-1.77-5.19c-.2.07-17.9,6-45.73,10.07A108.43,108.43,0,0,1,154.81,4a2.75,2.75,0,0,0-4.92-2.44,111.84,111.84,0,0,0-9.74,46.09c-3.18.41-6.47.8-9.86,1.15a355.77,355.77,0,0,1-40.22,1.86c0-.37,0-.74,0-1.12A108.2,108.2,0,0,1,99.19,4a2.75,2.75,0,0,0-4.92-2.44,111.92,111.92,0,0,0-9.72,48.1l0,.91q-7.93-.21-15.76-.77l-4.33-.35A2.74,2.74,0,1,0,64,54.87c1.46.13,3,.25,4.42.36,5.42.4,10.89.65,16.39.79a137.61,137.61,0,0,0,6.72,35.82c-.42.23-.85.47-1.26.74a17.94,17.94,0,0,0-7.87,12.1c-4.55-.15-9.08-.37-13.58-.7-8.53-.62-16.5-1.62-23.73-2.78-4.72-12.39-9.26-25.7-10.42-45.75a9,9,0,0,1-3,.53,9.15,9.15,0,0,1-2.47-.35c1.1,19.29,5.19,32.5,9.65,44.48C17.45,96.17,3.91,91.1,3.72,91a2.74,2.74,0,1,0-1.95,5.13c.83.32,15.78,5.93,39.33,10l.18.47c4.28,11.13,8.32,21.65,10,36.15a103.39,103.39,0,0,1,.65,13.7c-28.82-3.91-48-11.11-48.22-11.19a2.74,2.74,0,1,0-1.95,5.12c1,.36,20.34,7.65,49.94,11.58a125.16,125.16,0,0,1-6.51,32.72,2.75,2.75,0,0,0,1.58,3.55,2.78,2.78,0,0,0,1,.18,2.75,2.75,0,0,0,2.56-1.76,126.88,126.88,0,0,0,6.88-34q5.41.62,11.22,1.05,12.48.9,25.2.91c4.5,0,9-.12,13.54-.29a123.85,123.85,0,0,1-6.34,30.37,2.75,2.75,0,0,0,1.58,3.55,2.87,2.87,0,0,0,1,.18,2.74,2.74,0,0,0,2.56-1.76,126,126,0,0,0,6.77-32.57q9.06-.48,18.14-1.41a2.74,2.74,0,1,0-.56-5.45q-8.66.89-17.27,1.34a111.51,111.51,0,0,0-.66-16.45,115.5,115.5,0,0,0-3.79-18.68c.46-.25.92-.47,1.36-.76a17.88,17.88,0,0,0,7.76-11.36c.12-.59.21-1.19.28-1.79,4.29-.29,8.58-.63,12.88-1.07,7.52-.77,14.67-1.75,21.3-2.83.12.32.25.65.37,1,4.28,11.13,8.32,21.65,10,36.15.37,3.23.57,6.42.64,9.53-6.13,1.22-13.09,2.43-20.78,3.48a2.75,2.75,0,0,0,.37,5.47l.38,0c7.37-1,14.07-2.15,20-3.31a125.42,125.42,0,0,1-6.71,36.79,2.75,2.75,0,0,0,1.58,3.55,2.88,2.88,0,0,0,1,.18,2.75,2.75,0,0,0,2.56-1.76,128.29,128.29,0,0,0,7.11-39.88,234,234,0,0,0,24.45-6.35,2.75,2.75,0,0,0-1.77-5.2,230.46,230.46,0,0,1-22.72,5.93c-.09-2.95-.3-6-.65-9-1.77-15.17-6.12-26.49-10.33-37.44a269.06,269.06,0,0,0,35.47-8.48A2.74,2.74,0,0,0,194.84,92.7Zm-87.35,66.12a345.27,345.27,0,0,1-38.67-.62c-3.92-.28-7.72-.65-11.39-1.08a110.53,110.53,0,0,0-.69-15c-1.64-14-5.49-24.78-9.39-35,6.51,1,13.56,1.78,21.07,2.33,4.61.34,9.25.57,13.92.72a17.88,17.88,0,0,0,14.08,15,18.07,18.07,0,0,0,3.72.38,17.84,17.84,0,0,0,3.26-.33,108.17,108.17,0,0,1,3.51,17.48A103.51,103.51,0,0,1,107.49,158.82Zm4.87-48.95c0,.1,0,.21,0,.31a12.46,12.46,0,0,1-5.39,7.89h0v0h0a12.34,12.34,0,0,1-5.14,1.91v0l-.57,0-.15,0a12.74,12.74,0,0,1-3.53-.21,12.41,12.41,0,0,1-7.88-5.39,11.58,11.58,0,0,1-1.15-2.24,0,0,0,0,1,0,0c-.13-.34-.25-.68-.35-1,0-.13-.07-.25-.1-.38s-.09-.3-.12-.46h0a12.45,12.45,0,0,1,0-5.5h0c0-.19.1-.38.16-.58s.07-.27.11-.4.19-.55.3-.82c0-.09.07-.18.1-.27.15-.34.31-.68.49-1,0,0,0,0,0,0a12.25,12.25,0,0,1,4.14-4.52l.08-.05h0a12.49,12.49,0,0,1,5.16-1.87v0l.38,0,.47,0c.23,0,.47,0,.71,0a12.66,12.66,0,0,1,2.59.27,12.4,12.4,0,0,1,7.89,5.38c.1.17.18.35.28.52s.32.57.47.87.21.44.3.66a12.65,12.65,0,0,1,.49,1.38l.06.15h0a12.49,12.49,0,0,1,.22,5.5ZM130.29,103c-4.2.43-8.39.77-12.58,1.06a18,18,0,0,0-2.57-6.25A18,18,0,0,0,96.71,90a132.25,132.25,0,0,1-6.39-33.86l3.3,0a364.69,364.69,0,0,0,37.23-1.92c3.25-.34,6.39-.71,9.45-1.1.87,20.8,5.17,34.68,9.86,47.25C144,101.36,137.29,102.26,130.29,103Z"/><circle class="cls-2" cx="142.68" cy="50.26" r="9.08"/><circle class="cls-2" cx="142.68" cy="50.26" r="3.03"/><circle class="cls-3" cx="43.06" cy="103.17" r="9.08"/><circle class="cls-3" cx="43.06" cy="103.17" r="3.03"/><circle class="cls-3" cx="87.16" cy="53.4" r="9.08"/><path class="cls-3" d="M153.87,93.18a9.09,9.09,0,1,0,9.09,9.08A9.07,9.07,0,0,0,153.87,93.18Z"/><circle class="cls-2" cx="31.54" cy="46.9" r="9.08"/><circle class="cls-2" cx="31.54" cy="46.9" r="3.03"/><circle class="cls-2" cx="54.18" cy="159.31" r="9.08"/><circle class="cls-2" cx="54.18" cy="159.31" r="3.03"/><circle class="cls-2" cx="165.73" cy="154.32" r="9.08"/><circle class="cls-3" cx="109.85" cy="161.84" r="9.08"/><circle class="cls-3" cx="109.85" cy="161.84" r="3.03"/><path class="cls-1" d="M43.16,116.55a13.38,13.38,0,1,1,13.38-13.38A13.39,13.39,0,0,1,43.16,116.55Zm0-21.27a7.9,7.9,0,1,0,7.9,7.89A7.9,7.9,0,0,0,43.16,95.28Z"/><path class="cls-1" d="M31.64,60.28A13.39,13.39,0,1,1,45,46.9,13.4,13.4,0,0,1,31.64,60.28Zm0-21.28a7.9,7.9,0,1,0,7.9,7.9A7.9,7.9,0,0,0,31.64,39Z"/><path class="cls-1" d="M87.26,66.78A13.38,13.38,0,1,1,100.65,53.4,13.4,13.4,0,0,1,87.26,66.78Zm0-21.28a7.9,7.9,0,1,0,7.9,7.9A7.91,7.91,0,0,0,87.26,45.5Z"/><path class="cls-1" d="M142.78,63.64a13.38,13.38,0,1,1,13.38-13.38A13.39,13.39,0,0,1,142.78,63.64Zm0-21.27a7.9,7.9,0,1,0,7.9,7.89A7.9,7.9,0,0,0,142.78,42.37Z"/><path class="cls-1" d="M154,115.64a13.38,13.38,0,1,1,13.38-13.38A13.4,13.4,0,0,1,154,115.64Zm0-21.27a7.9,7.9,0,1,0,7.89,7.89A7.9,7.9,0,0,0,154,94.37Z"/><path class="cls-1" d="M165.83,167.7a13.38,13.38,0,1,1,13.38-13.38A13.39,13.39,0,0,1,165.83,167.7Zm0-21.27a7.9,7.9,0,1,0,7.9,7.89A7.9,7.9,0,0,0,165.83,146.43Z"/><path class="cls-1" d="M110,175.23a13.39,13.39,0,1,1,13.38-13.39A13.41,13.41,0,0,1,110,175.23ZM110,154a7.9,7.9,0,1,0,7.89,7.89A7.9,7.9,0,0,0,110,154Z"/><path class="cls-1" d="M54.29,172.69a13.38,13.38,0,1,1,13.38-13.38A13.39,13.39,0,0,1,54.29,172.69Zm0-21.27a7.89,7.89,0,1,0,7.89,7.89A7.9,7.9,0,0,0,54.29,151.42Z"/><path class="cls-1" d="M270.84,70.68c-10.82,0-17.33,8.81-17.33,23.58,0,14.58,6.23,23.2,16.87,23.2,8.53,0,13.95-4.86,14.77-13.39h13.39c-.82,15.32-11.92,25-28.52,25-18.62,0-30.27-13.48-30.27-35,0-21.64,11.74-35.13,30.63-35.13,15.6,0,26.7,8.72,27.89,23.76H285.15C284.42,79.31,282.31,70.68,270.84,70.68Z"/><path class="cls-1" d="M330.92,87.47c-5.78,0-9.91,4-9.91,9.72v29.72H308.17V60H321V84.53c3.58-5.41,8.16-8,14.49-8,7.07,0,16.15,3.39,16.15,17.15v33.2H338.81V96.64C338.81,91.32,336.88,87.47,330.92,87.47Z"/><path class="cls-1" d="M361.27,114.16c0-8.89,4.77-13.94,14.59-15.59l5.13-.92c4.22-.64,10.28-.92,10.28-5.78q0-5-7.43-5c-6.33,0-8.44,1.65-9.08,6.79H362.37c.83-11.47,7.8-17.15,21.19-17.15s20.27,5.13,20.27,15.22V119.3c0,2.57.65,3.94,2.94,6v1.56H392.83c-1.2-1.47-1.47-2.38-1.47-5-4.5,4.68-9.54,7.06-15,7.06C367.33,129,361.27,123.06,361.27,114.16Zm30-10.64c-1.47.74-2,.92-5.41,1.56l-4.41.83c-5.32,1.1-7.34,2.93-7.34,6.78,0,3.67,2.66,6,7,6,6.51,0,10.18-4.22,10.18-11.65Z"/><path class="cls-1" d="M462.17,103.15c0,15.87-9.45,25.87-24.49,25.87-15.23,0-24.49-9.91-24.49-26.23s9.26-26.23,24.39-26.23C453.09,76.56,462.17,86.37,462.17,103.15ZM426,102.79c0,9.45,4.68,15.87,11.65,15.87s11.65-6.42,11.65-15.69c0-9.72-4.59-16-11.65-16S426,93.34,426,102.79Z"/><path class="cls-1" d="M491.24,118.93c6,0,9.54-1.83,9.54-4.86,0-2-1.1-3-4.31-4l-15.32-4.76c-2.84-.92-10.82-2.48-10.82-12.2,0-10.19,7.79-16.51,20.36-16.51,13.3,0,21.37,6.32,21.55,16.78H499.86c-.09-4.49-3.12-6.7-9.26-6.7-4.5,0-7.43,1.84-7.43,4.59,0,2,.92,2.75,4.49,3.85l16.24,4.68c6.51,1.93,9.72,6.06,9.72,12.48,0,6.87-4.31,16.78-21.65,16.78-15,0-23-5.68-23.39-16.51h12.57C481.88,115.9,483.17,118.93,491.24,118.93Z"/><path class="cls-1" d="M563.42,126.91H549.66V60h20.55l12.11,53.2L594.06,60h20.73v66.87H601V74.81l-11.83,52.1H575.44l-12-52.1Z"/><path class="cls-1" d="M671.93,104a20,20,0,0,1-.1,2.2h-33.2c.28,6.7,1.65,13,10.27,13,4.68,0,8.26-2.3,9.82-6.24h12.66c-2.85,9.72-11.84,16.05-22.94,16.05-14,0-22.65-9.72-22.65-25.59,0-16.6,8.71-26.87,22.93-26.87C658.63,76.56,671.93,82.06,671.93,104ZM648.54,86.37c-5.69,0-8.9,3.76-9.73,11.28h19.72C658,90.4,654.5,86.37,648.54,86.37Z"/><path class="cls-1" d="M701,118.93c6,0,9.54-1.83,9.54-4.86,0-2-1.1-3-4.31-4l-15.32-4.76c-2.84-.92-10.82-2.48-10.82-12.2,0-10.19,7.79-16.51,20.36-16.51,13.3,0,21.37,6.32,21.55,16.78H709.62c-.09-4.49-3.12-6.7-9.26-6.7-4.5,0-7.43,1.84-7.43,4.59,0,2,.91,2.75,4.49,3.85l16.24,4.68c6.51,1.93,9.72,6.06,9.72,12.48,0,6.87-4.31,16.78-21.65,16.78-15,0-23-5.68-23.39-16.51h12.57C691.64,115.9,692.93,118.93,701,118.93Z"/><path class="cls-1" d="M755.3,87.47c-5.78,0-9.91,4-9.91,9.72v29.72H732.55V60h12.84V84.53c3.58-5.41,8.16-8,14.49-8C767,76.56,776,80,776,93.71v33.2H763.19V96.64C763.19,91.32,761.26,87.47,755.3,87.47Z"/></g></g></svg>
