<?xml version="1.0" encoding="iso-8859-1"?>
<!-- Generator: Adobe Illustrator 19.0.0, SVG Export Plug-In . SVG Version: 6.00 Build 0)  -->
<svg version="1.1" id="Layer_1" xmlns="http://www.w3.org/2000/svg" xmlns:xlink="http://www.w3.org/1999/xlink" x="0px" y="0px"
	 viewBox="0 0 512 512" style="enable-background:new 0 0 512 512;" xml:space="preserve">
<g>
	<g>
		<path d="M506.266,202.315c-1.688-7.65-8.469-13.097-16.304-13.097H272.696c-9.22,0-16.696,7.475-16.696,16.696v100.174
			c0,9.22,7.475,16.696,16.696,16.696h85.829c-22.343,34.05-60.964,55.652-102.525,55.652c-45.166,0-84.694-24.586-105.915-61.075
			c-0.03-0.053-0.052-0.109-0.083-0.163c-0.048-0.082-0.105-0.156-0.152-0.236C139.494,299,133.565,278.18,133.565,256
			c0-22.131,5.902-42.908,16.215-60.841c0.073-0.12,0.151-0.234,0.223-0.356c0.031-0.053,0.053-0.109,0.083-0.162
			c21.22-36.489,60.748-61.075,105.914-61.075c32.474,0,63.195,12.779,86.502,35.985c6.525,6.496,17.075,6.485,23.584-0.026
			l70.79-70.79c6.522-6.521,6.518-17.11-0.015-23.627C388.304,26.674,324.074,0,256,0C114.869,0,0,114.832,0,256
			c0,141.704,115.436,256,256,256c121.63,0,225.749-85.931,250.281-202.389C510.076,292.392,512,274.354,512,256
			C512,237.619,510.071,219.557,506.266,202.315z M256,33.391c53.609,0,104.499,19.055,145.016,53.982l-47.369,47.37
			c-27.726-22.398-61.834-34.569-97.647-34.569c-51.586,0-97.389,25.204-125.766,63.937l-58.056-33.519
			C112.309,71.95,179.733,33.391,256,33.391z M33.391,256c0-34.562,7.918-67.309,22.035-96.523l58.066,33.525
			c-8.555,19.273-13.319,40.588-13.319,62.998s4.764,43.725,13.318,62.999l-58.066,33.525C41.309,323.309,33.391,290.562,33.391,256
			z M256,478.609c-76.267,0-143.691-38.559-183.822-97.2l58.056-33.519c28.377,38.733,74.18,63.937,125.766,63.937
			c21.936,0,43.294-4.55,63.006-13.306l33.461,57.957C323.043,470.693,290.225,478.609,256,478.609z M473.659,302.488
			c-0.012,0.055-0.023,0.109-0.036,0.163c-12.031,57.22-46.14,105.632-92.255,137.102l-33.488-58.003
			c24.211-17.721,42.672-41.719,53.472-69.642c1.986-5.136,1.312-10.92-1.801-15.461c-3.113-4.542-8.265-7.257-13.772-7.257h-96.388
			v-66.783h186.711c1.666,10.863,2.507,22.045,2.507,33.391C478.609,271.966,476.944,287.606,473.659,302.488z"/>
	</g>
</g>
<g>
</g>
<g>
</g>
<g>
</g>
<g>
</g>
<g>
</g>
<g>
</g>
<g>
</g>
<g>
</g>
<g>
</g>
<g>
</g>
<g>
</g>
<g>
</g>
<g>
</g>
<g>
</g>
<g>
</g>
</svg>
