<!--
  ~ Copyright 2021 Chaos Mesh Authors.
  ~
  ~ Licensed under the Apache License, Version 2.0 (the "License");
  ~ you may not use this file except in compliance with the License.
  ~ You may obtain a copy of the License at
  ~
  ~ http://www.apache.org/licenses/LICENSE-2.0
  ~
  ~ Unless required by applicable law or agreed to in writing, software
  ~ distributed under the License is distributed on an "AS IS" BASIS,
  ~ WITHOUT WARRANTIES OR CONDITIONS OF ANY KIND, either express or implied.
  ~ See the License for the specific language governing permissions and
  ~ limitations under the License.
  ~
-->
<?xml version="1.0" encoding="iso-8859-1"?>
<!-- Generator: Adobe Illustrator 19.0.0, SVG Export Plug-In . SVG Version: 6.00 Build 0)  -->
<svg version="1.1" id="Capa_1" xmlns="http://www.w3.org/2000/svg" xmlns:xlink="http://www.w3.org/1999/xlink" x="0px" y="0px"
	 viewBox="0 0 512.944 512.944" style="enable-background:new 0 0 512.944 512.944;" xml:space="preserve">
<g>
	<g>
		<g>
			<path d="M257.28,0.439h-2.624c-8,0.16-16,0.08-23.904,0.304l0.832,32c7.568-0.208,15.104-0.304,23.056-0.288h2.432
				c147.712,0.384,223.872,34.272,223.872,48.608s-75.488,47.376-221.68,47.376h-2.448c-147.696-0.4-223.872-34.288-223.872-48.608
				c0-2.448,7.664-14,44.976-25.744l-9.6-30.512C23.712,37.607,1.04,56.439,0.96,79.735l-0.304,112L0,431.735
				c-0.16,54.976,132.464,80.368,255.76,80.704h2.544c57.671,0.79,115.219-5.53,171.344-18.816
				c54.56-14.4,82.272-34.736,82.336-60.48l0.352-128l0.608-224C512.944,26.151,380.352,0.775,257.28,0.439z M479.984,433.143
				c0,2.992-9.952,16.816-58.512,29.616c-54.268,12.684-109.894,18.622-165.616,17.68c-147.792-0.4-223.904-34.256-223.872-48.608
				l0.24-86.64c46.64,26.448,137.472,39.008,223.888,39.248h2.464c85.664,0,175.28-12.112,221.648-38L479.984,433.143z
				 M480.336,305.143c-0.128,14.272-75.504,47.36-221.52,47.36h-2.624c-147.776-0.464-223.888-34.32-223.856-48.688l0.128-70.624
				c46.72,26.448,137.6,39.008,224,39.248h2.544c57.671,0.79,115.219-5.53,171.344-18.816c17.395-4.242,34.219-10.554,50.112-18.8
				L480.336,305.143z M480.64,193.143c0,2.992-9.952,16.816-58.512,29.616c-54.305,12.562-109.931,18.499-165.664,17.68
				c-147.76-0.4-223.856-34.24-223.872-48.608l0.192-70.672c46.704,26.48,137.52,39.04,223.84,39.28h2.64
				c85.344,0,175.136-12.176,221.568-38.112L480.64,193.143z"/>
			<path d="M200.192,34.119l-2.032-32c-11.2,0.704-22.032,1.6-32.544,2.72l3.344,31.84C179.04,35.639,189.472,34.791,200.192,34.119
				z"/>
			<path d="M137.968,40.727l-4.88-31.632c-11.424,1.76-22.224,3.776-32.432,5.984l6.816,31.264
				C117.024,44.263,127.232,42.375,137.968,40.727z"/>
		</g>
	</g>
</g>
<g>
</g>
<g>
</g>
<g>
</g>
<g>
</g>
<g>
</g>
<g>
</g>
<g>
</g>
<g>
</g>
<g>
</g>
<g>
</g>
<g>
</g>
<g>
</g>
<g>
</g>
<g>
</g>
<g>
</g>
</svg>
