<!--
  ~ Copyright 2021 Chaos Mesh Authors.
  ~
  ~ Licensed under the Apache License, Version 2.0 (the "License");
  ~ you may not use this file except in compliance with the License.
  ~ You may obtain a copy of the License at
  ~
  ~ http://www.apache.org/licenses/LICENSE-2.0
  ~
  ~ Unless required by applicable law or agreed to in writing, software
  ~ distributed under the License is distributed on an "AS IS" BASIS,
  ~ WITHOUT WARRANTIES OR CONDITIONS OF ANY KIND, either express or implied.
  ~ See the License for the specific language governing permissions and
  ~ limitations under the License.
  ~
-->
<?xml version="1.0" encoding="iso-8859-1"?>
<!-- Generator: Adobe Illustrator 19.0.0, SVG Export Plug-In . SVG Version: 6.00 Build 0)  -->
<svg version="1.1" id="Layer_1" xmlns="http://www.w3.org/2000/svg" xmlns:xlink="http://www.w3.org/1999/xlink" x="0px" y="0px"
	 viewBox="0 0 485 485" style="enable-background:new 0 0 485 485;" xml:space="preserve">
<g>
	<path d="M139.157,383.053c16.613,1.984,35.279,12.746,50.9,14.646c15.705,1.983,20.565-10.695,20.565-10.695
		s17.673-3.951,36.253-4.406c18.598-0.521,36.203,3.868,36.203,3.868s3.414,7.819,9.787,11.233
		c6.373,3.48,20.094,3.951,28.888-5.314c8.811-9.332,32.319-21.087,45.519-28.435c13.284-7.365,10.846-18.597,2.506-22.011
		c-8.34-3.413-15.167-8.794-14.646-19.119c0.454-10.24-7.365-17.067-7.365-17.067s6.844-22.532,0.471-41.197
		c-6.373-18.58-27.392-48.461-43.551-70.926c-16.159-22.532-2.439-48.545-17.151-81.789c-14.714-33.294-52.867-31.326-73.432-17.135
		c-20.565,14.192-14.26,49.386-13.268,66.084c0.992,16.613,0.454,28.501-1.446,32.773c-1.9,4.338-15.167,20.094-23.978,33.294
		c-8.794,13.267-15.168,40.659-21.608,51.959c-6.306,11.233-1.9,21.473-1.9,21.473s-4.405,1.513-7.886,8.879
		c-3.414,7.281-10.241,10.761-22.533,13.133c-12.208,2.505-12.208,10.375-9.265,19.186c2.959,8.794,0,13.721-3.414,24.954
		C105.393,377.672,122.477,381.085,139.157,383.053z M311.849,331.816c8.727,3.817,21.271-1.497,25.088-5.314
		c3.801-3.8,6.491-9.45,6.491-9.45s3.817,1.9,3.43,7.936c-0.404,6.121,2.623,14.848,8.34,17.875
		c5.717,3.01,14.444,7.213,9.921,11.417c-4.608,4.204-30.099,14.461-37.716,22.465c-7.55,7.953-17.471,14.461-23.508,12.544
		c-6.103-1.9-11.434-10.24-8.81-22.448c2.707-12.157,4.994-25.492,4.607-33.109c-0.403-7.617-1.9-17.874,0-19.388
		c1.9-1.497,4.927-0.774,4.927-0.774S303.104,328.017,311.849,331.816z M255.216,126.033c8.407,0,15.184,8.34,15.184,18.597
		c0,7.281-3.414,13.587-8.408,16.614c-1.261-0.521-2.573-1.11-4.019-1.716c3.027-1.496,5.128-5.313,5.128-9.719
		c0-5.767-3.547-10.509-8.004-10.509c-4.338,0-7.954,4.741-7.954,10.509c0,2.103,0.522,4.204,1.379,5.852
		c-2.623-1.06-4.994-1.967-6.894-2.69c-0.992-2.506-1.581-5.331-1.581-8.34C240.048,134.374,246.807,126.033,255.216,126.033z
		 M234.398,158.083c4.137,0.723,15.503,5.65,19.708,7.163c4.204,1.446,8.861,4.136,8.407,6.827c-0.521,2.774-2.69,2.774-8.407,6.255
		c-5.65,3.414-17.992,11.031-21.944,11.552c-3.935,0.521-6.171-1.699-10.376-4.406c-4.204-2.758-12.089-9.198-10.106-12.611
		c0,0,6.171-4.725,8.862-7.146C223.233,163.211,230.194,157.309,234.398,158.083z M216.271,128.993
		c6.625,0,12.023,7.886,12.023,17.605c0,1.766-0.202,3.413-0.521,5.061c-1.648,0.521-3.295,1.379-4.877,2.758
		c-0.773,0.656-1.497,1.244-2.152,1.9c1.042-1.967,1.446-4.792,0.975-7.752c-0.908-5.246-4.456-9.13-7.937-8.609
		c-3.498,0.589-5.583,5.398-4.742,10.712c0.925,5.381,4.405,9.264,7.953,8.676c0.202-0.067,0.387-0.134,0.589-0.202
		c-1.698,1.648-3.279,3.094-4.927,4.271c-4.792-2.237-8.34-8.929-8.34-16.815C204.316,136.812,209.629,128.993,216.271,128.993z
		 M179.362,256.216c6.827-10.761,11.232-34.286,18.059-42.105c6.895-7.802,12.208-24.432,9.787-31.78
		c0,0,14.713,17.605,24.954,14.713c10.257-2.96,33.311-20.094,36.724-17.151c3.414,2.959,32.773,67.529,35.732,88.094
		c2.96,20.548-1.967,36.254-1.967,36.254s-11.232-2.96-12.679,3.867c-1.446,6.894-1.446,31.865-1.446,31.865
		s-15.184,21.019-38.692,24.499c-23.508,3.414-35.279,0.925-35.279,0.925l-13.2-15.117c0,0,10.258-1.513,8.811-11.821
		c-1.446-10.24-31.344-24.433-36.725-37.179C168.062,288.534,172.451,266.994,179.362,256.216z M121.232,333.33
		c1.177-5.044,16.411-5.044,22.263-8.592c5.852-3.548,7.028-13.738,11.754-16.428c4.657-2.758,13.267,7.029,16.815,12.543
		c3.481,5.381,16.816,28.906,22.264,34.757c5.515,5.902,10.577,13.721,8.996,20.75c-1.496,7.028-9.786,12.157-9.786,12.157
		c-7.415,2.287-28.098-6.642-37.497-10.577c-9.399-3.951-33.311-5.129-36.388-8.609c-3.161-3.548,1.513-11.367,2.757-18.783
		C123.519,343.049,120.039,338.391,121.232,333.33z"/>
	<path d="M0,0v485h485V0H0z M455,455H30V30h425V455z"/>
</g>
<g>
</g>
<g>
</g>
<g>
</g>
<g>
</g>
<g>
</g>
<g>
</g>
<g>
</g>
<g>
</g>
<g>
</g>
<g>
</g>
<g>
</g>
<g>
</g>
<g>
</g>
<g>
</g>
<g>
</g>
</svg>
