<svg id="Layer_1" enable-background="new 0 0 512.268 512.268" viewBox="0 0 512.268 512.268" xmlns="http://www.w3.org/2000/svg"><g><path d="m187.026 150.534 45.121 45.252c2.814 2.822 6.636 4.409 10.622 4.409s7.808-1.586 10.622-4.409l84.407-84.654c8.397-8.421 19.558-13.059 31.427-13.059s23.03 4.638 31.427 13.06c17.363 17.413 17.363 45.747 0 63.16l-84.407 84.654c-5.837 5.854-5.837 15.328 0 21.183l45.121 45.252c2.814 2.822 6.636 4.409 10.622 4.409s7.808-1.586 10.622-4.409l88.473-88.73c53.888-54.046 53.888-141.984 0-196.03-26.12-26.196-60.85-40.622-97.792-40.622-.002 0 .001 0 0 0-36.941 0-71.674 14.428-97.792 40.621l-88.473 88.73c-5.837 5.855-5.837 15.328 0 21.183zm109.717-88.731c20.449-20.509 47.634-31.803 76.548-31.803 28.913 0 56.098 11.294 76.547 31.803 42.242 42.366 42.242 111.3 0 153.665l-77.851 78.078-23.938-24.008 73.847-74.063c29.009-29.093 29.009-76.432 0-105.526-14.067-14.107-32.772-21.876-52.671-21.876-19.898 0-38.604 7.769-52.671 21.876l-73.785 74.001-23.938-24.008z"/><path d="m322.183 364.802-45.121-45.252c-2.814-2.822-6.636-4.409-10.622-4.409s-7.808 1.586-10.622 4.409l-81.348 81.585c-8.396 8.421-19.557 13.059-31.426 13.059s-23.03-4.638-31.427-13.059c-17.363-17.414-17.363-45.748 0-63.161l81.348-81.585c5.837-5.854 5.837-15.328 0-21.183l-45.121-45.252c-2.814-2.822-6.636-4.409-10.622-4.409s-7.808 1.586-10.622 4.409l-85.413 85.662c-53.889 54.046-53.889 141.984 0 196.03 26.119 26.195 60.849 40.621 97.792 40.621s71.673-14.426 97.792-40.621l85.413-85.662c5.836-5.854 5.836-15.328-.001-21.182zm-106.658 85.662c-20.449 20.509-47.634 31.804-76.547 31.804-28.914 0-56.099-11.295-76.548-31.804-42.243-42.366-42.243-111.299 0-153.665l74.791-75.009 23.938 24.008-70.788 70.994c-29.009 29.093-29.009 76.432 0 105.526 14.067 14.107 32.772 21.876 52.671 21.876s38.604-7.77 52.67-21.876l70.726-70.933 23.938 24.008z"/><path d="m15.081 169.598 69.464 17.417c19.92 3.874 25.582-23.994 7.296-29.1l-69.464-17.417c-20.278-3.806-25.329 23.976-7.296 29.1z"/><path d="m119.829 140.675c15.151 13.779 34.116-7.528 21.244-21.183l-53.835-53.992c-15.203-13.632-34.083 7.372-21.244 21.183z"/><path d="m158.154 91.331c6.035 19.623 32.992 11.216 29.109-7.256l-17.366-69.667c-6.183-19.683-33.075-11.067-29.109 7.256z"/><path d="m497.187 342.669-69.464-17.417c-8.037-2.017-16.183 2.866-18.198 10.902-2.015 8.035 2.866 16.183 10.902 18.198l69.464 17.417c19.92 3.874 25.582-23.994 7.296-29.1z"/><path d="m392.439 371.592c-15.203-13.632-34.083 7.372-21.244 21.183l53.835 53.992c15.151 13.779 34.116-7.528 21.244-21.183z"/><path d="m354.114 420.936c-6.184-19.683-33.075-11.067-29.109 7.256l17.366 69.667c6.035 19.623 32.992 11.216 29.109-7.256z"/></g></svg>
