<svg viewBox="0 0 48 48" fill="none" xmlns="http://www.w3.org/2000/svg">
<path fill-rule="evenodd" clip-rule="evenodd" d="M43.76 24C43.76 34.92 34.92 43.76 24 43.76C21.1425 43.76 19.0085 42.6874 17.9412 41.3864C16.874 40.0853 16.5737 37.9564 16.9411 34.8813L23.3012 33.6197C29.1119 32.5552 32.3137 29.3224 33.4601 23.5269C33.6003 22.7156 33.7605 21.9044 33.9123 21.1354C33.9744 20.8206 34.0351 20.5129 34.0925 20.2152C34.2658 19.2745 34.433 18.3805 34.5863 17.5606C34.7479 16.6968 34.8941 15.9152 35.0157 15.2477C35.6664 11.4799 35.1376 8.69814 33.6741 6.76291C39.6955 10.1472 43.76 16.5954 43.76 24ZM24 4.24C13.08 4.24 4.24 13.08 4.24 24C4.24 31.4046 8.30449 37.8528 14.3259 41.2371C12.8624 39.3019 12.3336 36.5201 12.9842 32.7523C13.124 31.9855 13.2913 31.0817 13.4779 30.0732C13.6079 29.3707 13.7473 28.6174 13.8934 27.8242C13.9508 27.5265 14.0115 27.2188 14.0737 26.9041C14.2255 26.1351 14.3856 25.3238 14.5259 24.5125C15.6327 18.6776 18.8345 15.4448 24.6452 14.3803L31.0589 13.1187C31.4263 10.0436 31.1261 7.91467 30.0588 6.61365C28.9915 5.31263 26.8575 4.24 24 4.24ZM48 24C48 37.24 37.24 48 24 48C10.76 48 0 37.24 0 24C0 10.76 10.76 0 24 0C37.24 0 48 10.76 48 24ZM30.2978 17.5343L25.4753 18.4805C21.3643 19.269 19.4669 21.1614 18.6764 25.2616C18.4926 26.1782 18.3325 27.0475 18.1778 27.8878C18.1329 28.1317 18.0884 28.3732 18.0439 28.6127C17.9253 29.2435 17.8067 29.8743 17.6882 30.4657L22.4711 29.5195C26.5821 28.731 28.5193 26.8386 29.3098 22.7384C29.4834 21.8726 29.6436 21.0046 29.8038 20.1366C29.9639 19.2685 30.1241 18.4003 30.2978 17.5343Z" fill="black"/>
</svg>
