<svg xmlns="http://www.w3.org/2000/svg" viewBox="0 0 762.7 185.17"><defs><style>.cls-1{fill:#172d72}.cls-2{fill:#f25c7c}.cls-3{fill:#10a6fa}</style></defs><g id="Layer_2" data-name="Layer 2"><g id="Layer_2-2" data-name="Layer 2"><path class="cls-1" d="M29.53 35.29a8.37 8.37 0 012.93.53 99.82 99.82 0 018.2-32.12 2.56 2.56 0 00-4.59-2.28 102.55 102.55 0 00-8.73 34.17 8.33 8.33 0 012.19-.3zM38 43.77a8.39 8.39 0 01-1.23 4.38c3.67.65 7.56 1.27 11.68 1.81h.34a2.56 2.56 0 00.34-5.1c-3.93-.52-7.64-1.12-11.16-1.74.03.23.03.44.03.65zM1.65 39.13a176.26 176.26 0 0019.48 5.74 10 10 0 01-.08-1.1 8.46 8.46 0 011-4 176.74 176.74 0 01-18.58-5.42 2.56 2.56 0 00-1.82 4.78z"/><path class="cls-1" d="M181.85 86.52a2.56 2.56 0 00-3.25-1.6 249.35 249.35 0 01-33.31 7.9c-4.39-11.7-8.48-24.52-9.25-43.94 26.85-3.89 44-9.65 44.21-9.72a2.56 2.56 0 10-1.65-4.84c-.19.06-16.7 5.6-42.68 9.4a101 101 0 018.57-40 2.56 2.56 0 00-4.59-2.28 104.28 104.28 0 00-9.1 43q-4.44.59-9.2 1.08a336.25 336.25 0 01-37.54 1.74v-1A101.12 101.12 0 0192.57 3.7 2.56 2.56 0 0088 1.42a104.52 104.52 0 00-9.07 44.89v.85c-4.93-.16-9.83-.36-14.7-.72-1.34-.1-2.7-.21-4-.33a2.56 2.56 0 00-.46 5.1c1.37.12 2.76.24 4.13.34 5.06.37 10.16.6 15.29.73a128.67 128.67 0 006.28 33.44c-.4.21-.8.44-1.18.69a16.71 16.71 0 00-7.38 11.29q-6.37-.21-12.68-.65c-8-.58-15.4-1.51-22.15-2.6-4.4-11.56-8.63-24-9.72-42.69a8.58 8.58 0 01-2.83.49 8.3 8.3 0 01-2.3-.33 132.73 132.73 0 009 41.52C16.28 89.76 3.65 85 3.47 85a2.56 2.56 0 00-1.82 4.79c.77.3 14.73 5.54 36.71 9.3 0 .15.11.29.16.44 4 10.39 7.77 20.21 9.35 33.74a94.76 94.76 0 01.6 12.79c-26.89-3.65-44.79-10.37-45-10.45a2.56 2.56 0 00-1.82 4.79c.89.33 19 7.14 46.61 10.8a116.56 116.56 0 01-6.08 30.54 2.57 2.57 0 001.48 3.26 2.46 2.46 0 00.92.17 2.55 2.55 0 002.42-1.64 118.7 118.7 0 006.41-31.75q5.07.58 10.48 1 11.64.86 23.52.85c4.2 0 8.41-.1 12.64-.26a116.32 116.32 0 01-5.92 28.34 2.56 2.56 0 004.78 1.84 118.22 118.22 0 006.32-30.4q8.44-.45 16.93-1.31a2.56 2.56 0 00-.53-5.1c-5.38.56-10.75 1-16.12 1.26a103.23 103.23 0 00-.61-15.35 106.48 106.48 0 00-3.54-17.44c.43-.23.86-.44 1.27-.71a16.65 16.65 0 007.24-10.6 16.07 16.07 0 00.26-1.67c4-.27 8-.59 12-1 7-.72 13.69-1.64 19.87-2.65.12.31.24.62.35.92 4 10.39 7.77 20.21 9.35 33.74.35 3 .54 6 .6 8.9a323.29 323.29 0 01-19.39 3.25 2.56 2.56 0 00.34 5.1 2.07 2.07 0 00.35 0c6.89-.94 13.14-2 18.67-3.08a117.35 117.35 0 01-6.27 34.28 2.57 2.57 0 001.48 3.31 2.44 2.44 0 00.91.17 2.57 2.57 0 002.4-1.64 120 120 0 006.63-37.22 217.39 217.39 0 0022.82-5.93 2.56 2.56 0 10-1.65-4.85 216.36 216.36 0 01-21.2 5.53c-.09-2.75-.28-5.57-.61-8.43-1.65-14.16-5.71-24.73-9.64-34.95a251.56 251.56 0 0033.1-7.91 2.56 2.56 0 001.61-3.25zm-81.52 61.71a323.36 323.36 0 01-36.1-.57c-3.66-.27-7.2-.62-10.63-1a103.6 103.6 0 00-.64-14c-1.53-13.14-5.12-23.16-8.76-32.66 6.07.9 12.65 1.66 19.66 2.17q6.45.48 13 .68a16.69 16.69 0 0013.14 14 17.11 17.11 0 003.47.36 16.25 16.25 0 003-.32 101.14 101.14 0 013.29 16.32 98.34 98.34 0 01.57 15.02zm4.54-45.68v.28a11.62 11.62 0 01-5 7.37A11.41 11.41 0 0195 112h-.67a11.41 11.41 0 01-3.29-.19 11.58 11.58 0 01-7.36-5 11.23 11.23 0 01-1.07-2.1c-.12-.31-.23-.64-.33-1l-.09-.36-.12-.42a11.73 11.73 0 010-5.14c0-.18.1-.36.15-.54s.07-.25.11-.37.18-.51.27-.76a2.77 2.77 0 00.1-.26c.14-.32.29-.64.46-1a11.52 11.52 0 013.86-4.22h.08a11.54 11.54 0 014.9-1.72h1.46a12.33 12.33 0 012.41.25 11.62 11.62 0 017.37 5c.1.16.16.32.26.48s.3.54.44.81.19.42.28.63a10.31 10.31 0 01.46 1.28v.14a11.62 11.62 0 01.21 5.14zm16.73-6.43q-5.88.6-11.74 1A16.79 16.79 0 0090.26 84a124 124 0 01-6-31.6h3.09a338.9 338.9 0 0034.75-1.8c3-.31 6-.65 8.81-1 .82 19.41 4.83 32.37 9.21 44.1-5.77.9-11.99 1.74-18.52 2.42z"/><circle class="cls-2" cx="133.17" cy="46.91" r="8.48"/><circle class="cls-2" cx="133.17" cy="46.91" r="2.83"/><circle class="cls-3" cx="40.19" cy="96.29" r="8.48"/><circle class="cls-3" cx="40.19" cy="96.29" r="2.83"/><circle class="cls-3" cx="81.35" cy="49.84" r="8.48"/><path class="cls-3" d="M143.61 87a8.48 8.48 0 108.48 8.48 8.48 8.48 0 00-8.48-8.48z"/><circle class="cls-2" cx="29.43" cy="43.77" r="8.48"/><circle class="cls-2" cx="29.43" cy="43.77" r="2.83"/><circle class="cls-2" cx="50.57" cy="148.69" r="8.48"/><circle class="cls-2" cx="50.57" cy="148.69" r="2.83"/><circle class="cls-2" cx="154.68" cy="144.03" r="8.48"/><circle class="cls-3" cx="102.53" cy="151.05" r="8.48"/><circle class="cls-3" cx="102.53" cy="151.05" r="2.83"/><path class="cls-1" d="M40.28 108.78a12.49 12.49 0 1112.49-12.49 12.51 12.51 0 01-12.49 12.49zm0-19.85a7.37 7.37 0 107.37 7.36 7.37 7.37 0 00-7.37-7.36zM29.53 56.26A12.49 12.49 0 1142 43.77a12.51 12.51 0 01-12.47 12.49zm0-19.86a7.37 7.37 0 107.37 7.37 7.38 7.38 0 00-7.37-7.37zM81.45 62.33a12.49 12.49 0 1112.48-12.49 12.5 12.5 0 01-12.48 12.49zm0-19.86a7.37 7.37 0 107.36 7.37 7.38 7.38 0 00-7.36-7.37zM133.26 59.4a12.49 12.49 0 1112.49-12.49 12.51 12.51 0 01-12.49 12.49zm0-19.86a7.37 7.37 0 107.37 7.37 7.38 7.38 0 00-7.37-7.37zM143.71 107.93a12.49 12.49 0 1112.49-12.49 12.5 12.5 0 01-12.49 12.49zm0-19.86a7.37 7.37 0 107.37 7.37 7.38 7.38 0 00-7.37-7.37zM154.78 156.52A12.49 12.49 0 11167.26 144a12.5 12.5 0 01-12.48 12.52zm0-19.86a7.37 7.37 0 107.36 7.37 7.38 7.38 0 00-7.36-7.37zM102.62 163.54a12.49 12.49 0 1112.49-12.49 12.5 12.5 0 01-12.49 12.49zm0-19.85a7.37 7.37 0 107.37 7.36 7.37 7.37 0 00-7.37-7.36zM50.67 161.18a12.49 12.49 0 1112.49-12.49 12.51 12.51 0 01-12.49 12.49zm0-19.86a7.37 7.37 0 107.33 7.37 7.37 7.37 0 00-7.33-7.37zM252.78 66c-10.1 0-16.18 8.22-16.18 22 0 13.61 5.83 21.66 15.76 21.66 8 0 13-4.54 13.78-12.5h12.5c-.77 14.3-11.13 23.29-26.63 23.29-17.37 0-28.25-12.59-28.25-32.62 0-20.2 11-32.79 28.6-32.79 14.55 0 24.91 8.14 26 22.18h-12.22C265.46 74 263.49 66 252.78 66zM308.85 81.64c-5.39 0-9.24 3.76-9.24 9.07v27.74h-12V56h12v22.9c3.34-5.05 7.62-7.45 13.52-7.45 6.6 0 15.07 3.17 15.07 16v31h-12V90.2c.02-4.97-1.78-8.56-7.35-8.56zM337.19 106.55c0-8.3 4.45-13 13.61-14.55l4.79-.86c3.94-.6 9.59-.86 9.59-5.39 0-3.08-2.31-4.63-6.93-4.63-5.91 0-7.88 1.55-8.48 6.34h-11.56c.77-10.7 7.28-16 19.78-16s18.92 4.8 18.92 14.21v25.68c0 2.4.6 3.69 2.74 5.65v1.46h-13c-1.12-1.37-1.37-2.23-1.37-4.62-4.2 4.36-8.91 6.59-14 6.59-8.44-.01-14.09-5.58-14.09-13.88zm28-9.93c-1.37.68-1.88.86-5.05 1.46l-4.11.77c-5 1-6.85 2.73-6.85 6.33 0 3.43 2.48 5.56 6.51 5.56 6.08 0 9.5-3.93 9.5-10.87zM431.35 96.28c0 14.81-8.82 24.14-22.86 24.14-14.21 0-22.85-9.25-22.85-24.49s8.64-24.48 22.77-24.48c14.47 0 22.94 9.16 22.94 24.83zm-33.73-.35c0 8.82 4.37 14.81 10.87 14.81s10.88-6 10.88-14.63c0-9.08-4.28-15-10.88-15s-10.87 6.01-10.87 14.82zM458.49 111c5.56 0 8.9-1.71 8.9-4.54 0-1.88-1-2.82-4-3.76l-14.3-4.45c-2.65-.86-10.1-2.32-10.1-11.39 0-9.5 7.27-15.41 19-15.41 12.42 0 19.95 5.91 20.12 15.67h-11.58c-.08-4.2-2.91-6.25-8.64-6.25-4.2 0-6.94 1.71-6.94 4.28 0 1.88.86 2.57 4.2 3.59l15.15 4.37c6.08 1.8 9.08 5.65 9.08 11.64 0 6.42-4 15.67-20.21 15.67-14 0-21.49-5.31-21.83-15.41h11.73c.68 3.17 1.93 5.99 9.42 5.99zM525.86 118.45H513V56h19.18l11.3 49.65 11-49.65h19.32v62.41H561V69.82l-11.05 48.63h-12.88l-11.21-48.63zM627.13 97.05a19.18 19.18 0 01-.09 2h-31c.26 6.25 1.54 12.16 9.59 12.16 4.36 0 7.7-2.14 9.16-5.82h11.81c-2.65 9.07-11 15-21.4 15-13.1 0-21.14-9.08-21.14-23.89 0-15.49 8.13-25.08 21.4-25.08 9.25.03 21.67 5.17 21.67 25.63zM605.3 80.61c-5.31 0-8.31 3.51-9.08 10.53h18.41c-.52-6.76-3.77-10.53-9.33-10.53zM654.26 111c5.57 0 8.9-1.71 8.9-4.54 0-1.88-1-2.82-4-3.76l-14.3-4.45c-2.65-.86-10.1-2.32-10.1-11.39 0-9.5 7.28-15.41 19-15.41 12.41 0 19.94 5.91 20.12 15.67h-11.57c-.09-4.2-2.91-6.25-8.65-6.25-4.19 0-6.93 1.71-6.93 4.28 0 1.88.85 2.57 4.19 3.59l15.15 4.37c6.08 1.8 9.08 5.65 9.08 11.64 0 6.42-4 15.67-20.2 15.67-14 0-21.49-5.31-21.83-15.41h11.72c.69 3.17 1.89 5.99 9.42 5.99zM704.94 81.64c-5.4 0-9.25 3.76-9.25 9.07v27.74h-12V56h12v22.9c3.34-5.05 7.62-7.45 13.53-7.45 6.59 0 15.07 3.17 15.07 16v31h-12V90.2c.01-4.97-1.79-8.56-7.35-8.56zM738.79 72.91h-3.47v-14h-5.11V56h13.51v2.89h-4.93zM749.74 72.91h-3.47V56h5.18l3.06 13.42 3-13.42h5.23v16.91h-3.47V59.77l-3 13.14h-3.47l-3-13.14z"/></g></g></svg>